<svg width="387" height="13" viewBox="0 0 387 13" fill="none" xmlns="http://www.w3.org/2000/svg">
<path d="M0.89 10C0.83 10 0.783333 9.98333 0.75 9.95C0.716667 9.91667 0.7 9.87333 0.7 9.82V2.79C0.7 2.73 0.716667 2.68 0.75 2.64C0.79 2.6 0.84 2.58 0.9 2.58H3.61C4.59 2.58 5.33667 2.74667 5.85 3.08C6.37 3.40667 6.63 3.89 6.63 4.53C6.63 4.89667 6.53 5.20667 6.33 5.46C6.13667 5.71333 5.8 5.94333 5.32 6.15C5.3 6.15667 5.29 6.17 5.29 6.19C5.29 6.21 5.3 6.22333 5.32 6.23C5.84667 6.40333 6.22667 6.63 6.46 6.91C6.69333 7.18333 6.81 7.54333 6.81 7.99C6.81 8.67 6.55333 9.17667 6.04 9.51C5.52667 9.83667 4.76 10 3.74 10H0.89ZM3.69 8.82C4.12333 8.82 4.44667 8.73 4.66 8.55C4.88 8.37 4.99 8.13 4.99 7.83C4.99 7.61667 4.93667 7.44 4.83 7.3C4.72333 7.15333 4.57667 7.04333 4.39 6.97C4.21 6.89667 4 6.86 3.76 6.86H2.64C2.51333 6.86 2.45 6.91667 2.45 7.03V8.63C2.45 8.75667 2.49667 8.82 2.59 8.82H3.69ZM3.76 5.64C3.91333 5.64 4.05667 5.62333 4.19 5.59C4.33 5.55667 4.45 5.5 4.55 5.42C4.65667 5.34 4.74 5.24333 4.8 5.13C4.86667 5.01667 4.9 4.88333 4.9 4.73C4.9 4.41667 4.78333 4.17667 4.55 4.01C4.32333 3.84333 4.03 3.76 3.67 3.76H2.64C2.51333 3.76 2.45 3.81667 2.45 3.93V5.46C2.45 5.58 2.49667 5.64 2.59 5.64H3.76ZM14.7555 2.58C14.8221 2.58 14.8655 2.6 14.8855 2.64C14.9055 2.67333 14.8988 2.72 14.8655 2.78L12.5155 6.63C12.4755 6.69 12.4521 6.75333 12.4455 6.82C12.4388 6.88 12.4355 6.99333 12.4355 7.16V9.76C12.4355 9.92 12.3421 10 12.1555 10H10.9055C10.8188 10 10.7588 9.98333 10.7255 9.95C10.6988 9.91667 10.6855 9.86333 10.6855 9.79V7.1C10.6855 7.00667 10.6755 6.93667 10.6555 6.89C10.6355 6.84333 10.6055 6.79 10.5655 6.73L8.19547 2.81C8.15547 2.74333 8.1488 2.69 8.17547 2.65C8.20214 2.60333 8.2588 2.58 8.34547 2.58H9.84547C9.93214 2.58 9.99214 2.59333 10.0255 2.62C10.0588 2.64667 10.0955 2.69333 10.1355 2.76L11.6155 5.36C11.6555 5.42667 11.6888 5.46333 11.7155 5.47C11.7421 5.47 11.7721 5.44 11.8055 5.38L13.2655 2.76C13.3055 2.68667 13.3421 2.64 13.3755 2.62C13.4155 2.59333 13.4755 2.58 13.5555 2.58H14.7555Z" fill="black"/>
<path d="M21.48 10C21.42 10 21.3767 9.97333 21.35 9.92C21.3233 9.86667 21.3233 9.79667 21.35 9.71L23.84 2.78C23.8667 2.70667 23.8967 2.65667 23.93 2.63C23.9633 2.59667 24.02 2.58 24.1 2.58H25.6C25.7467 2.58 25.8467 2.65333 25.9 2.8L28.37 9.73C28.39 9.78333 28.39 9.84333 28.37 9.91C28.35 9.97 28.31 10 28.25 10H26.78C26.68 10 26.6167 9.95333 26.59 9.86L26.07 8.4C26.0633 8.36667 26.05 8.34 26.03 8.32C26.0167 8.3 25.9867 8.29 25.94 8.29H23.5C23.4333 8.29 23.39 8.32333 23.37 8.39L22.84 9.87C22.8267 9.91 22.8033 9.94333 22.77 9.97C22.7433 9.99 22.6967 10 22.63 10H21.48ZM25.53 6.96C25.6233 6.96 25.6533 6.90333 25.62 6.79L24.78 4.45C24.76 4.41 24.7367 4.39 24.71 4.39C24.69 4.39 24.67 4.41333 24.65 4.46L23.8 6.79C23.7533 6.90333 23.7833 6.96 23.89 6.96H25.53ZM36.4748 2.58C36.5615 2.58 36.6048 2.63 36.6048 2.73V9.84C36.6048 9.88667 36.5882 9.92667 36.5548 9.96C36.5215 9.98667 36.4748 10 36.4148 10H35.4048C35.3515 10 35.3082 9.99333 35.2748 9.98C35.2415 9.96667 35.2015 9.93333 35.1548 9.88L31.9648 5.4C31.9382 5.36667 31.9115 5.35333 31.8848 5.36C31.8648 5.36667 31.8548 5.38667 31.8548 5.42V9.82C31.8615 9.94 31.7948 10 31.6548 10H30.6148C30.4815 10 30.4148 9.94333 30.4148 9.83V2.77C30.4148 2.64333 30.4748 2.58 30.5948 2.58H31.8048C31.8782 2.58 31.9315 2.59 31.9648 2.61C32.0048 2.63 32.0482 2.67 32.0948 2.73L35.0348 6.92C35.0748 6.97333 35.1082 6.99667 35.1348 6.99C35.1682 6.98333 35.1848 6.95 35.1848 6.89V2.76C35.1848 2.64 35.2448 2.58 35.3648 2.58H36.4748ZM45.0627 2.58C45.1494 2.58 45.1927 2.63 45.1927 2.73V9.84C45.1927 9.88667 45.1761 9.92667 45.1427 9.96C45.1094 9.98667 45.0627 10 45.0027 10H43.9927C43.9394 10 43.8961 9.99333 43.8627 9.98C43.8294 9.96667 43.7894 9.93333 43.7427 9.88L40.5527 5.4C40.5261 5.36667 40.4994 5.35333 40.4727 5.36C40.4527 5.36667 40.4427 5.38667 40.4427 5.42V9.82C40.4494 9.94 40.3827 10 40.2427 10H39.2027C39.0694 10 39.0027 9.94333 39.0027 9.83V2.77C39.0027 2.64333 39.0627 2.58 39.1827 2.58H40.3927C40.4661 2.58 40.5194 2.59 40.5527 2.61C40.5927 2.63 40.6361 2.67 40.6827 2.73L43.6227 6.92C43.6627 6.97333 43.6961 6.99667 43.7227 6.99C43.7561 6.98333 43.7727 6.95 43.7727 6.89V2.76C43.7727 2.64 43.8327 2.58 43.9527 2.58H45.0627ZM49.1806 2.58C49.2873 2.58 49.3406 2.64 49.3406 2.76V9.76C49.3406 9.84667 49.3173 9.91 49.2706 9.95C49.2306 9.98333 49.164 10 49.0706 10H47.8106C47.724 10 47.664 9.98333 47.6306 9.95C47.604 9.91667 47.5906 9.86333 47.5906 9.79V2.77C47.5906 2.64333 47.644 2.58 47.7506 2.58H49.1806ZM51.7449 2.77C51.7449 2.64333 51.7983 2.58 51.9049 2.58H56.9449C57.0449 2.58 57.0949 2.63667 57.0949 2.75L57.0849 3.65C57.0849 3.79 57.0149 3.86 56.8749 3.86H53.6849C53.5583 3.86 53.4949 3.91333 53.4949 4.02V5.47C53.4949 5.58333 53.5449 5.64 53.6449 5.64H55.7649C55.8783 5.64 55.9349 5.69333 55.9349 5.8V6.76C55.9349 6.8 55.9216 6.83333 55.8949 6.86C55.8749 6.88667 55.8349 6.9 55.7749 6.9H53.6349C53.5416 6.9 53.4949 6.94 53.4949 7.02V8.59C53.4949 8.67667 53.5316 8.72 53.6049 8.72H57.0249C57.1449 8.72 57.2049 8.77 57.2049 8.87V9.82C57.2049 9.87333 57.1883 9.91667 57.1549 9.95C57.1283 9.98333 57.0783 10 57.0049 10H51.9649C51.8183 10 51.7449 9.93 51.7449 9.79V2.77ZM62.3484 2.77C62.3484 2.64333 62.4018 2.58 62.5084 2.58H63.9384C64.0451 2.58 64.0984 2.64 64.0984 2.76V8.59C64.0984 8.67667 64.1351 8.72 64.2084 8.72H67.3984C67.5184 8.72 67.5784 8.77 67.5784 8.87V9.82C67.5784 9.87333 67.5618 9.91667 67.5284 9.95C67.5018 9.98333 67.4551 10 67.3884 10H62.5684C62.4818 10 62.4218 9.98333 62.3884 9.95C62.3618 9.91667 62.3484 9.86333 62.3484 9.79V2.77ZM75.1564 7.25C75.1564 7.95 75.0364 8.51 74.7964 8.93C74.5564 9.35 74.2131 9.65 73.7664 9.83C73.3197 10.01 72.7864 10.1 72.1664 10.1C71.4397 10.1 70.8564 9.98667 70.4164 9.76C69.9831 9.52667 69.6664 9.18667 69.4664 8.74C69.2731 8.28667 69.1764 7.73 69.1764 7.07V2.78C69.1764 2.64667 69.2297 2.58 69.3364 2.58H70.7764C70.8764 2.58 70.9264 2.64 70.9264 2.76V7.29C70.9264 7.83667 71.0431 8.23333 71.2764 8.48C71.5164 8.72667 71.8564 8.85 72.2964 8.85C72.5764 8.85 72.8231 8.8 73.0364 8.7C73.2497 8.59333 73.4164 8.42333 73.5364 8.19C73.6564 7.95667 73.7164 7.64667 73.7164 7.26V2.77C73.7164 2.64333 73.7664 2.58 73.8664 2.58H75.0064C75.1064 2.58 75.1564 2.64 75.1564 2.76V7.25ZM77.4734 2.77C77.4734 2.64333 77.5268 2.58 77.6334 2.58H82.6734C82.7734 2.58 82.8234 2.63667 82.8234 2.75L82.8134 3.65C82.8134 3.79 82.7434 3.86 82.6034 3.86H79.4134C79.2868 3.86 79.2234 3.91333 79.2234 4.02V5.47C79.2234 5.58333 79.2734 5.64 79.3734 5.64H81.4934C81.6068 5.64 81.6634 5.69333 81.6634 5.8V6.76C81.6634 6.8 81.6501 6.83333 81.6234 6.86C81.6034 6.88667 81.5634 6.9 81.5034 6.9H79.3634C79.2701 6.9 79.2234 6.94 79.2234 7.02V8.59C79.2234 8.67667 79.2601 8.72 79.3334 8.72H82.7534C82.8734 8.72 82.9334 8.77 82.9334 8.87V9.82C82.9334 9.87333 82.9168 9.91667 82.8834 9.95C82.8568 9.98333 82.8068 10 82.7334 10H77.6934C77.5468 10 77.4734 9.93 77.4734 9.79V2.77ZM86.6064 2.58C86.7131 2.58 86.7664 2.64 86.7664 2.76V9.76C86.7664 9.84667 86.7431 9.91 86.6964 9.95C86.6564 9.98333 86.5897 10 86.4964 10H85.2364C85.1497 10 85.0897 9.98333 85.0564 9.95C85.0297 9.91667 85.0164 9.86333 85.0164 9.79V2.77C85.0164 2.64333 85.0697 2.58 85.1764 2.58H86.6064ZM89.1707 2.77C89.1707 2.64333 89.224 2.58 89.3307 2.58H90.7607C90.8674 2.58 90.9207 2.64 90.9207 2.76V8.59C90.9207 8.67667 90.9574 8.72 91.0307 8.72H94.2207C94.3407 8.72 94.4007 8.77 94.4007 8.87V9.82C94.4007 9.87333 94.384 9.91667 94.3507 9.95C94.324 9.98333 94.2774 10 94.2107 10H89.3907C89.304 10 89.244 9.98333 89.2107 9.95C89.184 9.91667 89.1707 9.86333 89.1707 9.79V2.77ZM105.131 2.58C105.231 2.58 105.301 2.61 105.341 2.67C105.381 2.73 105.388 2.80333 105.361 2.89L103.321 9.79C103.274 9.93 103.174 10 103.021 10H101.941C101.774 10 101.671 9.93 101.631 9.79L100.371 5.42C100.358 5.36 100.338 5.33 100.311 5.33C100.291 5.32333 100.271 5.36 100.251 5.44L98.9811 9.79C98.9411 9.93 98.8411 10 98.6811 10H97.5711C97.4111 10 97.3078 9.93 97.2611 9.79L95.2211 2.89C95.2011 2.80333 95.2111 2.73 95.2511 2.67C95.2911 2.61 95.3611 2.58 95.4611 2.58H96.7111C96.7978 2.58 96.8578 2.59667 96.8911 2.63C96.9311 2.65667 96.9578 2.69667 96.9711 2.75L98.2611 7.3C98.2811 7.37333 98.3011 7.41 98.3211 7.41C98.3411 7.41 98.3611 7.38333 98.3811 7.33L99.6711 2.75C99.6844 2.69667 99.7078 2.65667 99.7411 2.63C99.7811 2.59667 99.8444 2.58 99.9311 2.58H101.001C101.088 2.58 101.148 2.59667 101.181 2.63C101.221 2.65667 101.251 2.69667 101.271 2.75L102.581 7.37C102.594 7.41667 102.614 7.44333 102.641 7.45C102.668 7.45 102.684 7.42667 102.691 7.38L103.961 2.75C103.974 2.69667 104.001 2.65667 104.041 2.63C104.081 2.59667 104.144 2.58 104.231 2.58H105.131ZM109.001 2.58C109.108 2.58 109.161 2.64 109.161 2.76V9.76C109.161 9.84667 109.138 9.91 109.091 9.95C109.051 9.98333 108.984 10 108.891 10H107.631C107.544 10 107.484 9.98333 107.451 9.95C107.424 9.91667 107.411 9.86333 107.411 9.79V2.77C107.411 2.64333 107.464 2.58 107.571 2.58H109.001ZM111.195 2.76C111.195 2.70667 111.212 2.66333 111.245 2.63C111.279 2.59667 111.329 2.58 111.395 2.58H117.135C117.209 2.58 117.259 2.59667 117.285 2.63C117.319 2.66333 117.335 2.70667 117.335 2.76V3.69C117.335 3.79 117.275 3.84 117.155 3.84H115.285C115.212 3.84 115.175 3.87333 115.175 3.94V9.81C115.175 9.93667 115.119 10 115.005 10H113.575C113.475 10 113.425 9.94333 113.425 9.83V3.97C113.425 3.88333 113.389 3.84 113.315 3.84H111.385C111.259 3.84 111.195 3.79 111.195 3.69V2.76ZM119.222 10C119.142 10 119.085 9.98667 119.052 9.96C119.025 9.93333 119.012 9.88 119.012 9.8V9.44C119.012 9.35333 119.022 9.29 119.042 9.25C119.062 9.20333 119.109 9.13 119.182 9.03L122.592 4C122.645 3.91333 122.619 3.87 122.512 3.87H119.452C119.385 3.87 119.339 3.85667 119.312 3.83C119.292 3.79667 119.282 3.74667 119.282 3.68V2.75C119.282 2.63667 119.329 2.58 119.422 2.58H124.952C125.052 2.58 125.102 2.63333 125.102 2.74V3.15C125.102 3.21 125.092 3.26333 125.072 3.31C125.052 3.35 125.015 3.40667 124.962 3.48L121.472 8.58C121.439 8.62667 121.435 8.66 121.462 8.68C121.489 8.69333 121.522 8.7 121.562 8.7H124.882C125.002 8.7 125.062 8.75 125.062 8.85V9.82C125.062 9.87333 125.045 9.91667 125.012 9.95C124.985 9.98333 124.939 10 124.872 10H119.222Z" fill="black"/>
</svg>
