<svg width="387" height="13" viewBox="0 0 387 13" fill="none" xmlns="http://www.w3.org/2000/svg">
<path d="M0.89 11C0.83 11 0.783333 10.9833 0.75 10.95C0.716667 10.9167 0.7 10.8733 0.7 10.82V3.79C0.7 3.73 0.716667 3.68 0.75 3.64C0.79 3.6 0.84 3.58 0.9 3.58H3.61C4.59 3.58 5.33667 3.74667 5.85 4.08C6.37 4.40667 6.63 4.89 6.63 5.53C6.63 5.89667 6.53 6.20667 6.33 6.46C6.13667 6.71333 5.8 6.94333 5.32 7.15C5.3 7.15667 5.29 7.17 5.29 7.19C5.29 7.21 5.3 7.22333 5.32 7.23C5.84667 7.40333 6.22667 7.63 6.46 7.91C6.69333 8.18333 6.81 8.54333 6.81 8.99C6.81 9.67 6.55333 10.1767 6.04 10.51C5.52667 10.8367 4.76 11 3.74 11H0.89ZM3.69 9.82C4.12333 9.82 4.44667 9.73 4.66 9.55C4.88 9.37 4.99 9.13 4.99 8.83C4.99 8.61667 4.93667 8.44 4.83 8.3C4.72333 8.15333 4.57667 8.04333 4.39 7.97C4.21 7.89667 4 7.86 3.76 7.86H2.64C2.51333 7.86 2.45 7.91667 2.45 8.03V9.63C2.45 9.75667 2.49667 9.82 2.59 9.82H3.69ZM3.76 6.64C3.91333 6.64 4.05667 6.62333 4.19 6.59C4.33 6.55667 4.45 6.5 4.55 6.42C4.65667 6.34 4.74 6.24333 4.8 6.13C4.86667 6.01667 4.9 5.88333 4.9 5.73C4.9 5.41667 4.78333 5.17667 4.55 5.01C4.32333 4.84333 4.03 4.76 3.67 4.76H2.64C2.51333 4.76 2.45 4.81667 2.45 4.93V6.46C2.45 6.58 2.49667 6.64 2.59 6.64H3.76ZM14.7555 3.58C14.8221 3.58 14.8655 3.6 14.8855 3.64C14.9055 3.67333 14.8988 3.72 14.8655 3.78L12.5155 7.63C12.4755 7.69 12.4521 7.75333 12.4455 7.82C12.4388 7.88 12.4355 7.99333 12.4355 8.16V10.76C12.4355 10.92 12.3421 11 12.1555 11H10.9055C10.8188 11 10.7588 10.9833 10.7255 10.95C10.6988 10.9167 10.6855 10.8633 10.6855 10.79V8.1C10.6855 8.00667 10.6755 7.93667 10.6555 7.89C10.6355 7.84333 10.6055 7.79 10.5655 7.73L8.19547 3.81C8.15547 3.74333 8.1488 3.69 8.17547 3.65C8.20214 3.60333 8.2588 3.58 8.34547 3.58H9.84547C9.93214 3.58 9.99214 3.59333 10.0255 3.62C10.0588 3.64667 10.0955 3.69333 10.1355 3.76L11.6155 6.36C11.6555 6.42667 11.6888 6.46333 11.7155 6.47C11.7421 6.47 11.7721 6.44 11.8055 6.38L13.2655 3.76C13.3055 3.68667 13.3421 3.64 13.3755 3.62C13.4155 3.59333 13.4755 3.58 13.5555 3.58H14.7555Z" fill="black"/>
<path d="M27.72 10.73C27.7467 10.8033 27.7433 10.8667 27.71 10.92C27.6833 10.9733 27.6367 11 27.57 11H26.1C25.9867 11 25.9133 10.94 25.88 10.82L24.8 8.02C24.76 7.92667 24.6667 7.88 24.52 7.88H23.57C23.5233 7.88 23.49 7.89333 23.47 7.92C23.4567 7.94667 23.45 7.97 23.45 7.99V10.76C23.45 10.92 23.36 11 23.18 11H21.91C21.83 11 21.7733 10.9833 21.74 10.95C21.7133 10.9167 21.7 10.8667 21.7 10.8V3.77C21.7 3.64333 21.7533 3.58 21.86 3.58H24.98C25.8733 3.58 26.5667 3.75667 27.06 4.11C27.56 4.46333 27.81 4.96667 27.81 5.62C27.81 5.96 27.7467 6.26333 27.62 6.53C27.4933 6.79667 27.3267 7.02 27.12 7.2C26.9133 7.37333 26.6867 7.50333 26.44 7.59C26.38 7.61 26.3667 7.66 26.4 7.74L27.72 10.73ZM24.82 6.7C25.2 6.7 25.49 6.62 25.69 6.46C25.8967 6.29333 26 6.05333 26 5.74C26 5.41333 25.8967 5.16667 25.69 5C25.4833 4.83333 25.21 4.75 24.87 4.75H23.64C23.5133 4.75 23.45 4.80667 23.45 4.92V6.53C23.45 6.64333 23.4967 6.7 23.59 6.7H24.82ZM29.9168 3.77C29.9168 3.64333 29.9701 3.58 30.0768 3.58H35.1168C35.2168 3.58 35.2668 3.63667 35.2668 3.75L35.2568 4.65C35.2568 4.79 35.1868 4.86 35.0468 4.86H31.8568C31.7301 4.86 31.6668 4.91333 31.6668 5.02V6.47C31.6668 6.58333 31.7168 6.64 31.8168 6.64H33.9368C34.0501 6.64 34.1068 6.69333 34.1068 6.8V7.76C34.1068 7.8 34.0935 7.83333 34.0668 7.86C34.0468 7.88667 34.0068 7.9 33.9468 7.9H31.8068C31.7135 7.9 31.6668 7.94 31.6668 8.02V9.59C31.6668 9.67667 31.7035 9.72 31.7768 9.72H35.1968C35.3168 9.72 35.3768 9.77 35.3768 9.87V10.82C35.3768 10.8733 35.3601 10.9167 35.3268 10.95C35.3001 10.9833 35.2501 11 35.1768 11H30.1368C29.9901 11 29.9168 10.93 29.9168 10.79V3.77ZM37.0898 3.76C37.0898 3.70667 37.1064 3.66333 37.1398 3.63C37.1731 3.59667 37.2231 3.58 37.2898 3.58H43.0298C43.1031 3.58 43.1531 3.59667 43.1798 3.63C43.2131 3.66333 43.2298 3.70667 43.2298 3.76V4.69C43.2298 4.79 43.1698 4.84 43.0498 4.84H41.1798C41.1064 4.84 41.0698 4.87333 41.0698 4.94V10.81C41.0698 10.9367 41.0131 11 40.8998 11H39.4698C39.3698 11 39.3198 10.9433 39.3198 10.83V4.97C39.3198 4.88333 39.2831 4.84 39.2098 4.84H37.2798C37.1531 4.84 37.0898 4.79 37.0898 4.69V3.76ZM44.0015 11C43.9415 11 43.8982 10.9733 43.8715 10.92C43.8448 10.8667 43.8448 10.7967 43.8715 10.71L46.3615 3.78C46.3882 3.70667 46.4182 3.65667 46.4515 3.63C46.4848 3.59667 46.5415 3.58 46.6215 3.58H48.1215C48.2682 3.58 48.3682 3.65333 48.4215 3.8L50.8915 10.73C50.9115 10.7833 50.9115 10.8433 50.8915 10.91C50.8715 10.97 50.8315 11 50.7715 11H49.3015C49.2015 11 49.1382 10.9533 49.1115 10.86L48.5915 9.4C48.5848 9.36667 48.5715 9.34 48.5515 9.32C48.5382 9.3 48.5082 9.29 48.4615 9.29H46.0215C45.9548 9.29 45.9115 9.32333 45.8915 9.39L45.3615 10.87C45.3482 10.91 45.3248 10.9433 45.2915 10.97C45.2648 10.99 45.2182 11 45.1515 11H44.0015ZM48.0515 7.96C48.1448 7.96 48.1748 7.90333 48.1415 7.79L47.3015 5.45C47.2815 5.41 47.2582 5.39 47.2315 5.39C47.2115 5.39 47.1915 5.41333 47.1715 5.46L46.3215 7.79C46.2748 7.90333 46.3048 7.96 46.4115 7.96H48.0515ZM55.6269 3.76C55.6269 3.70667 55.6435 3.66333 55.6769 3.63C55.7102 3.59667 55.7602 3.58 55.8269 3.58H61.5669C61.6402 3.58 61.6902 3.59667 61.7169 3.63C61.7502 3.66333 61.7669 3.70667 61.7669 3.76V4.69C61.7669 4.79 61.7069 4.84 61.5869 4.84H59.7169C59.6435 4.84 59.6069 4.87333 59.6069 4.94V10.81C59.6069 10.9367 59.5502 11 59.4369 11H58.0069C57.9069 11 57.8569 10.9433 57.8569 10.83V4.97C57.8569 4.88333 57.8202 4.84 57.7469 4.84H55.8169C55.6902 4.84 55.6269 4.79 55.6269 4.69V3.76ZM66.5343 11.1C65.8276 11.1 65.2176 10.95 64.7043 10.65C64.191 10.3433 63.7943 9.90667 63.5143 9.34C63.241 8.77333 63.1043 8.1 63.1043 7.32C63.1043 6.52667 63.2443 5.84333 63.5243 5.27C63.811 4.69667 64.211 4.25667 64.7243 3.95C65.2376 3.63667 65.841 3.48 66.5343 3.48C67.2276 3.48 67.8276 3.63667 68.3343 3.95C68.8476 4.25667 69.2443 4.69667 69.5243 5.27C69.8043 5.83667 69.9443 6.51667 69.9443 7.31C69.9443 8.09 69.8043 8.76333 69.5243 9.33C69.251 9.89667 68.8576 10.3333 68.3443 10.64C67.831 10.9467 67.2276 11.1 66.5343 11.1ZM66.5343 9.87C67.081 9.87 67.481 9.67333 67.7343 9.28C67.9876 8.88 68.1143 8.23 68.1143 7.33C68.1143 6.41 67.9843 5.74333 67.7243 5.33C67.471 4.91 67.0743 4.7 66.5343 4.7C65.9876 4.7 65.5843 4.91 65.3243 5.33C65.0643 5.75 64.9343 6.41667 64.9343 7.33C64.9343 8.22333 65.061 8.87 65.3143 9.27C65.5743 9.67 65.981 9.87 66.5343 9.87ZM78.1184 10.73C78.1451 10.8033 78.1418 10.8667 78.1084 10.92C78.0818 10.9733 78.0351 11 77.9684 11H76.4984C76.3851 11 76.3118 10.94 76.2784 10.82L75.1984 8.02C75.1584 7.92667 75.0651 7.88 74.9184 7.88H73.9684C73.9218 7.88 73.8884 7.89333 73.8684 7.92C73.8551 7.94667 73.8484 7.97 73.8484 7.99V10.76C73.8484 10.92 73.7584 11 73.5784 11H72.3084C72.2284 11 72.1718 10.9833 72.1384 10.95C72.1118 10.9167 72.0984 10.8667 72.0984 10.8V3.77C72.0984 3.64333 72.1518 3.58 72.2584 3.58H75.3784C76.2718 3.58 76.9651 3.75667 77.4584 4.11C77.9584 4.46333 78.2084 4.96667 78.2084 5.62C78.2084 5.96 78.1451 6.26333 78.0184 6.53C77.8918 6.79667 77.7251 7.02 77.5184 7.2C77.3118 7.37333 77.0851 7.50333 76.8384 7.59C76.7784 7.61 76.7651 7.66 76.7984 7.74L78.1184 10.73ZM75.2184 6.7C75.5984 6.7 75.8884 6.62 76.0884 6.46C76.2951 6.29333 76.3984 6.05333 76.3984 5.74C76.3984 5.41333 76.2951 5.16667 76.0884 5C75.8818 4.83333 75.6084 4.75 75.2684 4.75H74.0384C73.9118 4.75 73.8484 4.80667 73.8484 4.92V6.53C73.8484 6.64333 73.8951 6.7 73.9884 6.7H75.2184ZM86.3852 5.89C86.3852 6.38333 86.2686 6.8 86.0352 7.14C85.8019 7.47333 85.4819 7.72667 85.0752 7.9C84.6752 8.07333 84.2086 8.16 83.6752 8.16H82.1752C82.1019 8.16 82.0652 8.19667 82.0652 8.27V10.77C82.0652 10.9233 81.9786 11 81.8052 11H80.5252C80.4452 11 80.3886 10.9833 80.3552 10.95C80.3286 10.9167 80.3152 10.8667 80.3152 10.8V3.77C80.3152 3.64333 80.3686 3.58 80.4752 3.58H83.4752C84.0086 3.58 84.4952 3.66333 84.9352 3.83C85.3819 3.99667 85.7352 4.25 85.9952 4.59C86.2552 4.93 86.3852 5.36333 86.3852 5.89ZM84.5852 5.86C84.5852 5.62667 84.5352 5.43667 84.4352 5.29C84.3352 5.13667 84.1919 5.02333 84.0052 4.95C83.8186 4.87667 83.6052 4.84 83.3652 4.84H82.2552C82.1286 4.84 82.0652 4.89667 82.0652 5.01V6.72C82.0652 6.84667 82.1119 6.91 82.2052 6.91H83.4352C83.7886 6.91 84.0686 6.81667 84.2752 6.63C84.4819 6.44333 84.5852 6.18667 84.5852 5.86ZM90.3437 7.83C90.257 7.83 90.2137 7.87333 90.2137 7.96V10.77C90.2137 10.9233 90.1237 11 89.9437 11H88.6837C88.597 11 88.537 10.9833 88.5037 10.95C88.477 10.9167 88.4637 10.8633 88.4637 10.79V3.77C88.4637 3.64333 88.517 3.58 88.6237 3.58H90.0537C90.1603 3.58 90.2137 3.64 90.2137 3.76V6.32C90.2137 6.43333 90.2637 6.49 90.3637 6.49H92.6737C92.7803 6.49 92.8337 6.43667 92.8337 6.33V3.76C92.8337 3.64 92.8837 3.58 92.9837 3.58H94.4137C94.527 3.58 94.5837 3.64333 94.5837 3.77V10.79C94.5837 10.8633 94.567 10.9167 94.5337 10.95C94.507 10.9833 94.4503 11 94.3637 11H93.0937C92.9203 11 92.8337 10.9233 92.8337 10.77V7.96C92.8337 7.87333 92.787 7.83 92.6937 7.83H90.3437ZM103.173 3.58C103.24 3.58 103.283 3.6 103.303 3.64C103.323 3.67333 103.317 3.72 103.283 3.78L100.933 7.63C100.893 7.69 100.87 7.75333 100.863 7.82C100.857 7.88 100.853 7.99333 100.853 8.16V10.76C100.853 10.92 100.76 11 100.573 11H99.3234C99.2368 11 99.1768 10.9833 99.1434 10.95C99.1168 10.9167 99.1034 10.8633 99.1034 10.79V8.1C99.1034 8.00667 99.0934 7.93667 99.0734 7.89C99.0534 7.84333 99.0234 7.79 98.9834 7.73L96.6134 3.81C96.5734 3.74333 96.5668 3.69 96.5934 3.65C96.6201 3.60333 96.6768 3.58 96.7634 3.58H98.2634C98.3501 3.58 98.4101 3.59333 98.4434 3.62C98.4768 3.64667 98.5134 3.69333 98.5534 3.76L100.033 6.36C100.073 6.42667 100.107 6.46333 100.133 6.47C100.16 6.47 100.19 6.44 100.223 6.38L101.683 3.76C101.723 3.68667 101.76 3.64 101.793 3.62C101.833 3.59333 101.893 3.58 101.973 3.58H103.173Z" fill="black"/>
</svg>
