<svg width="387" height="13" viewBox="0 0 387 13" fill="none" xmlns="http://www.w3.org/2000/svg">
<path d="M0.89 10C0.83 10 0.783333 9.98333 0.75 9.95C0.716667 9.91667 0.7 9.87333 0.7 9.82V2.79C0.7 2.73 0.716667 2.68 0.75 2.64C0.79 2.6 0.84 2.58 0.9 2.58H3.61C4.59 2.58 5.33667 2.74667 5.85 3.08C6.37 3.40667 6.63 3.89 6.63 4.53C6.63 4.89667 6.53 5.20667 6.33 5.46C6.13667 5.71333 5.8 5.94333 5.32 6.15C5.3 6.15667 5.29 6.17 5.29 6.19C5.29 6.21 5.3 6.22333 5.32 6.23C5.84667 6.40333 6.22667 6.63 6.46 6.91C6.69333 7.18333 6.81 7.54333 6.81 7.99C6.81 8.67 6.55333 9.17667 6.04 9.51C5.52667 9.83667 4.76 10 3.74 10H0.89ZM3.69 8.82C4.12333 8.82 4.44667 8.73 4.66 8.55C4.88 8.37 4.99 8.13 4.99 7.83C4.99 7.61667 4.93667 7.44 4.83 7.3C4.72333 7.15333 4.57667 7.04333 4.39 6.97C4.21 6.89667 4 6.86 3.76 6.86H2.64C2.51333 6.86 2.45 6.91667 2.45 7.03V8.63C2.45 8.75667 2.49667 8.82 2.59 8.82H3.69ZM3.76 5.64C3.91333 5.64 4.05667 5.62333 4.19 5.59C4.33 5.55667 4.45 5.5 4.55 5.42C4.65667 5.34 4.74 5.24333 4.8 5.13C4.86667 5.01667 4.9 4.88333 4.9 4.73C4.9 4.41667 4.78333 4.17667 4.55 4.01C4.32333 3.84333 4.03 3.76 3.67 3.76H2.64C2.51333 3.76 2.45 3.81667 2.45 3.93V5.46C2.45 5.58 2.49667 5.64 2.59 5.64H3.76ZM14.7555 2.58C14.8221 2.58 14.8655 2.6 14.8855 2.64C14.9055 2.67333 14.8988 2.72 14.8655 2.78L12.5155 6.63C12.4755 6.69 12.4521 6.75333 12.4455 6.82C12.4388 6.88 12.4355 6.99333 12.4355 7.16V9.76C12.4355 9.92 12.3421 10 12.1555 10H10.9055C10.8188 10 10.7588 9.98333 10.7255 9.95C10.6988 9.91667 10.6855 9.86333 10.6855 9.79V7.1C10.6855 7.00667 10.6755 6.93667 10.6555 6.89C10.6355 6.84333 10.6055 6.79 10.5655 6.73L8.19547 2.81C8.15547 2.74333 8.1488 2.69 8.17547 2.65C8.20214 2.60333 8.2588 2.58 8.34547 2.58H9.84547C9.93214 2.58 9.99214 2.59333 10.0255 2.62C10.0588 2.64667 10.0955 2.69333 10.1355 2.76L11.6155 5.36C11.6555 5.42667 11.6888 5.46333 11.7155 5.47C11.7421 5.47 11.7721 5.44 11.8055 5.38L13.2655 2.76C13.3055 2.68667 13.3421 2.64 13.3755 2.62C13.4155 2.59333 13.4755 2.58 13.5555 2.58H14.7555Z" fill="black"/>
<path d="M21.48 10C21.42 10 21.3767 9.97333 21.35 9.92C21.3233 9.86667 21.3233 9.79667 21.35 9.71L23.84 2.78C23.8667 2.70667 23.8967 2.65667 23.93 2.63C23.9633 2.59667 24.02 2.58 24.1 2.58H25.6C25.7467 2.58 25.8467 2.65333 25.9 2.8L28.37 9.73C28.39 9.78333 28.39 9.84333 28.37 9.91C28.35 9.97 28.31 10 28.25 10H26.78C26.68 10 26.6167 9.95333 26.59 9.86L26.07 8.4C26.0633 8.36667 26.05 8.34 26.03 8.32C26.0167 8.3 25.9867 8.29 25.94 8.29H23.5C23.4333 8.29 23.39 8.32333 23.37 8.39L22.84 9.87C22.8267 9.91 22.8033 9.94333 22.77 9.97C22.7433 9.99 22.6967 10 22.63 10H21.48ZM25.53 6.96C25.6233 6.96 25.6533 6.90333 25.62 6.79L24.78 4.45C24.76 4.41 24.7367 4.39 24.71 4.39C24.69 4.39 24.67 4.41333 24.65 4.46L23.8 6.79C23.7533 6.90333 23.7833 6.96 23.89 6.96H25.53ZM30.4148 2.77C30.4148 2.64333 30.4682 2.58 30.5748 2.58H32.0048C32.1115 2.58 32.1648 2.64 32.1648 2.76V8.59C32.1648 8.67667 32.2015 8.72 32.2748 8.72H35.4648C35.5848 8.72 35.6448 8.77 35.6448 8.87V9.82C35.6448 9.87333 35.6282 9.91667 35.5948 9.95C35.5682 9.98333 35.5215 10 35.4548 10H30.6348C30.5482 10 30.4882 9.98333 30.4548 9.95C30.4282 9.91667 30.4148 9.86333 30.4148 9.79V2.77ZM37.6844 2.77C37.6844 2.64333 37.7377 2.58 37.8444 2.58H42.8844C42.9844 2.58 43.0344 2.63667 43.0344 2.75L43.0244 3.65C43.0244 3.79 42.9544 3.86 42.8144 3.86H39.6244C39.4977 3.86 39.4344 3.91333 39.4344 4.02V5.47C39.4344 5.58333 39.4844 5.64 39.5844 5.64H41.7044C41.8177 5.64 41.8744 5.69333 41.8744 5.8V6.76C41.8744 6.8 41.861 6.83333 41.8344 6.86C41.8144 6.88667 41.7744 6.9 41.7144 6.9H39.5744C39.481 6.9 39.4344 6.94 39.4344 7.02V8.59C39.4344 8.67667 39.471 8.72 39.5444 8.72H42.9644C43.0844 8.72 43.1444 8.77 43.1444 8.87V9.82C43.1444 9.87333 43.1277 9.91667 43.0944 9.95C43.0677 9.98333 43.0177 10 42.9444 10H37.9044C37.7577 10 37.6844 9.93 37.6844 9.79V2.77ZM49.4873 4.33C49.3407 4.17 49.1573 4.02667 48.9373 3.9C48.724 3.77333 48.4173 3.71 48.0173 3.71C47.5973 3.71 47.284 3.78667 47.0773 3.94C46.8707 4.08667 46.7673 4.27667 46.7673 4.51C46.7673 4.59 46.7873 4.67667 46.8273 4.77C46.8673 4.86333 46.9473 4.95333 47.0673 5.04C47.1873 5.12667 47.3573 5.20333 47.5773 5.27L49.1573 5.72C49.7707 5.88667 50.2173 6.15667 50.4973 6.53C50.7773 6.89667 50.9173 7.32333 50.9173 7.81C50.9173 8.27667 50.7973 8.68333 50.5573 9.03C50.3173 9.37 49.974 9.63333 49.5273 9.82C49.0807 10.0067 48.5507 10.1 47.9373 10.1C47.484 10.1 47.0573 10.05 46.6573 9.95C46.264 9.84333 45.914 9.69333 45.6073 9.5C45.3073 9.3 45.0707 9.07 44.8973 8.81C44.864 8.74333 44.8507 8.69 44.8573 8.65C44.864 8.60333 44.8973 8.55667 44.9573 8.51L45.7273 7.98C45.8073 7.93333 45.8707 7.91333 45.9173 7.92C45.9707 7.92667 46.0173 7.95333 46.0573 8C46.2173 8.2 46.374 8.36667 46.5273 8.5C46.6873 8.63333 46.8707 8.73 47.0773 8.79C47.284 8.85 47.5307 8.88 47.8173 8.88C48.2507 8.88 48.5973 8.81333 48.8573 8.68C49.1173 8.54 49.2473 8.32667 49.2473 8.04C49.2473 7.92667 49.2207 7.82333 49.1673 7.73C49.114 7.63 49.0273 7.54333 48.9073 7.47C48.794 7.39 48.6307 7.31667 48.4173 7.25L46.9073 6.82C46.514 6.70667 46.184 6.54667 45.9173 6.34C45.6507 6.13333 45.4473 5.89 45.3073 5.61C45.174 5.33 45.1073 5.03667 45.1073 4.73C45.1073 4.30333 45.224 3.92 45.4573 3.58C45.6973 3.24 46.0307 2.97333 46.4573 2.78C46.8907 2.58 47.394 2.48 47.9673 2.48C48.3473 2.48 48.7007 2.52333 49.0273 2.61C49.3607 2.69667 49.6607 2.81667 49.9273 2.97C50.194 3.12333 50.4107 3.31 50.5773 3.53C50.604 3.56333 50.624 3.60333 50.6373 3.65C50.6507 3.69 50.6307 3.73333 50.5773 3.78L49.7373 4.4C49.6973 4.42667 49.6607 4.43667 49.6273 4.43C49.594 4.41667 49.5473 4.38333 49.4873 4.33ZM57.0889 4.33C56.9422 4.17 56.7589 4.02667 56.5389 3.9C56.3256 3.77333 56.0189 3.71 55.6189 3.71C55.1989 3.71 54.8856 3.78667 54.6789 3.94C54.4722 4.08667 54.3689 4.27667 54.3689 4.51C54.3689 4.59 54.3889 4.67667 54.4289 4.77C54.4689 4.86333 54.5489 4.95333 54.6689 5.04C54.7889 5.12667 54.9589 5.20333 55.1789 5.27L56.7589 5.72C57.3722 5.88667 57.8189 6.15667 58.0989 6.53C58.3789 6.89667 58.5189 7.32333 58.5189 7.81C58.5189 8.27667 58.3989 8.68333 58.1589 9.03C57.9189 9.37 57.5756 9.63333 57.1289 9.82C56.6822 10.0067 56.1522 10.1 55.5389 10.1C55.0856 10.1 54.6589 10.05 54.2589 9.95C53.8656 9.84333 53.5156 9.69333 53.2089 9.5C52.9089 9.3 52.6722 9.07 52.4989 8.81C52.4656 8.74333 52.4522 8.69 52.4589 8.65C52.4656 8.60333 52.4989 8.55667 52.5589 8.51L53.3289 7.98C53.4089 7.93333 53.4722 7.91333 53.5189 7.92C53.5722 7.92667 53.6189 7.95333 53.6589 8C53.8189 8.2 53.9756 8.36667 54.1289 8.5C54.2889 8.63333 54.4722 8.73 54.6789 8.79C54.8856 8.85 55.1322 8.88 55.4189 8.88C55.8522 8.88 56.1989 8.81333 56.4589 8.68C56.7189 8.54 56.8489 8.32667 56.8489 8.04C56.8489 7.92667 56.8222 7.82333 56.7689 7.73C56.7156 7.63 56.6289 7.54333 56.5089 7.47C56.3956 7.39 56.2322 7.31667 56.0189 7.25L54.5089 6.82C54.1156 6.70667 53.7856 6.54667 53.5189 6.34C53.2522 6.13333 53.0489 5.89 52.9089 5.61C52.7756 5.33 52.7089 5.03667 52.7089 4.73C52.7089 4.30333 52.8256 3.92 53.0589 3.58C53.2989 3.24 53.6322 2.97333 54.0589 2.78C54.4922 2.58 54.9956 2.48 55.5689 2.48C55.9489 2.48 56.3022 2.52333 56.6289 2.61C56.9622 2.69667 57.2622 2.81667 57.5289 2.97C57.7956 3.12333 58.0122 3.31 58.1789 3.53C58.2056 3.56333 58.2256 3.60333 58.2389 3.65C58.2522 3.69 58.2322 3.73333 58.1789 3.78L57.3389 4.4C57.2989 4.42667 57.2622 4.43667 57.2289 4.43C57.1956 4.41667 57.1489 4.38333 57.0889 4.33ZM60.064 10C60.004 10 59.9607 9.97333 59.934 9.92C59.9073 9.86667 59.9073 9.79667 59.934 9.71L62.424 2.78C62.4507 2.70667 62.4807 2.65667 62.514 2.63C62.5473 2.59667 62.604 2.58 62.684 2.58H64.184C64.3307 2.58 64.4307 2.65333 64.484 2.8L66.954 9.73C66.974 9.78333 66.974 9.84333 66.954 9.91C66.934 9.97 66.894 10 66.834 10H65.364C65.264 10 65.2007 9.95333 65.174 9.86L64.654 8.4C64.6473 8.36667 64.634 8.34 64.614 8.32C64.6007 8.3 64.5707 8.29 64.524 8.29H62.084C62.0173 8.29 61.974 8.32333 61.954 8.39L61.424 9.87C61.4107 9.91 61.3873 9.94333 61.354 9.97C61.3273 9.99 61.2807 10 61.214 10H60.064ZM64.114 6.96C64.2073 6.96 64.2373 6.90333 64.204 6.79L63.364 4.45C63.344 4.41 63.3207 4.39 63.294 4.39C63.274 4.39 63.254 4.41333 63.234 4.46L62.384 6.79C62.3373 6.90333 62.3673 6.96 62.474 6.96H64.114ZM75.0588 2.58C75.1455 2.58 75.1888 2.63 75.1888 2.73V9.84C75.1888 9.88667 75.1722 9.92667 75.1388 9.96C75.1055 9.98667 75.0588 10 74.9988 10H73.9888C73.9355 10 73.8922 9.99333 73.8588 9.98C73.8255 9.96667 73.7855 9.93333 73.7388 9.88L70.5488 5.4C70.5222 5.36667 70.4955 5.35333 70.4688 5.36C70.4488 5.36667 70.4388 5.38667 70.4388 5.42V9.82C70.4455 9.94 70.3788 10 70.2388 10H69.1988C69.0655 10 68.9988 9.94333 68.9988 9.83V2.77C68.9988 2.64333 69.0588 2.58 69.1788 2.58H70.3888C70.4622 2.58 70.5155 2.59 70.5488 2.61C70.5888 2.63 70.6322 2.67 70.6788 2.73L73.6188 6.92C73.6588 6.97333 73.6922 6.99667 73.7188 6.99C73.7522 6.98333 73.7688 6.95 73.7688 6.89V2.76C73.7688 2.64 73.8288 2.58 73.9488 2.58H75.0588ZM77.8067 2.58C77.9267 2.58 78.0867 2.58 78.2867 2.58C78.4934 2.58 78.7067 2.58 78.9267 2.58C79.1534 2.58 79.3667 2.58 79.5667 2.58C79.7667 2.58 79.9234 2.58333 80.0367 2.59C80.9367 2.61 81.6767 2.77333 82.2567 3.08C82.8367 3.38667 83.2634 3.81 83.5367 4.35C83.8167 4.88333 83.9567 5.52 83.9567 6.26C83.9567 7.02 83.8101 7.68333 83.5167 8.25C83.2301 8.81 82.7901 9.24333 82.1967 9.55C81.6101 9.85 80.8734 10 79.9867 10H77.8167C77.6634 10 77.5867 9.92 77.5867 9.76V2.79C77.5867 2.71 77.6034 2.65667 77.6367 2.63C77.6701 2.59667 77.7267 2.58 77.8067 2.58ZM79.4367 3.82C79.3701 3.82 79.3367 3.86667 79.3367 3.96V8.63C79.3367 8.72333 79.3801 8.77 79.4667 8.77H79.6567C80.2034 8.77 80.6601 8.69 81.0267 8.53C81.3934 8.36333 81.6667 8.09667 81.8467 7.73C82.0334 7.36333 82.1267 6.87667 82.1267 6.27C82.1267 5.68333 82.0401 5.21333 81.8667 4.86C81.7001 4.5 81.4401 4.23667 81.0867 4.07C80.7401 3.90333 80.2967 3.82 79.7567 3.82H79.4367ZM92.1165 9.73C92.1432 9.80333 92.1398 9.86667 92.1065 9.92C92.0798 9.97333 92.0332 10 91.9665 10H90.4965C90.3832 10 90.3098 9.94 90.2765 9.82L89.1965 7.02C89.1565 6.92667 89.0632 6.88 88.9165 6.88H87.9665C87.9198 6.88 87.8865 6.89333 87.8665 6.92C87.8532 6.94667 87.8465 6.97 87.8465 6.99V9.76C87.8465 9.92 87.7565 10 87.5765 10H86.3065C86.2265 10 86.1698 9.98333 86.1365 9.95C86.1098 9.91667 86.0965 9.86667 86.0965 9.8V2.77C86.0965 2.64333 86.1498 2.58 86.2565 2.58H89.3765C90.2698 2.58 90.9632 2.75667 91.4565 3.11C91.9565 3.46333 92.2065 3.96667 92.2065 4.62C92.2065 4.96 92.1432 5.26333 92.0165 5.53C91.8898 5.79667 91.7232 6.02 91.5165 6.2C91.3098 6.37333 91.0832 6.50333 90.8365 6.59C90.7765 6.61 90.7632 6.66 90.7965 6.74L92.1165 9.73ZM89.2165 5.7C89.5965 5.7 89.8865 5.62 90.0865 5.46C90.2932 5.29333 90.3965 5.05333 90.3965 4.74C90.3965 4.41333 90.2932 4.16667 90.0865 4C89.8798 3.83333 89.6065 3.75 89.2665 3.75H88.0365C87.9098 3.75 87.8465 3.80667 87.8465 3.92V5.53C87.8465 5.64333 87.8932 5.7 87.9865 5.7H89.2165ZM93.8296 10C93.7696 10 93.7263 9.97333 93.6996 9.92C93.6729 9.86667 93.6729 9.79667 93.6996 9.71L96.1896 2.78C96.2163 2.70667 96.2463 2.65667 96.2796 2.63C96.3129 2.59667 96.3696 2.58 96.4496 2.58H97.9496C98.0963 2.58 98.1963 2.65333 98.2496 2.8L100.72 9.73C100.74 9.78333 100.74 9.84333 100.72 9.91C100.7 9.97 100.66 10 100.6 10H99.1296C99.0296 10 98.9663 9.95333 98.9396 9.86L98.4196 8.4C98.4129 8.36667 98.3996 8.34 98.3796 8.32C98.3663 8.3 98.3363 8.29 98.2896 8.29H95.8496C95.7829 8.29 95.7396 8.32333 95.7196 8.39L95.1896 9.87C95.1763 9.91 95.1529 9.94333 95.1196 9.97C95.0929 9.99 95.0463 10 94.9796 10H93.8296ZM97.8796 6.96C97.9729 6.96 98.0029 6.90333 97.9696 6.79L97.1296 4.45C97.1096 4.41 97.0863 4.39 97.0596 4.39C97.0396 4.39 97.0196 4.41333 96.9996 4.46L96.1496 6.79C96.1029 6.90333 96.1329 6.96 96.2396 6.96H97.8796ZM109.005 10.1C108.298 10.1 107.688 9.95 107.175 9.65C106.662 9.34333 106.265 8.90667 105.985 8.34C105.712 7.77333 105.575 7.1 105.575 6.32C105.575 5.52667 105.715 4.84333 105.995 4.27C106.282 3.69667 106.682 3.25667 107.195 2.95C107.708 2.63667 108.312 2.48 109.005 2.48C109.698 2.48 110.298 2.63667 110.805 2.95C111.318 3.25667 111.715 3.69667 111.995 4.27C112.275 4.83667 112.415 5.51667 112.415 6.31C112.415 7.09 112.275 7.76333 111.995 8.33C111.722 8.89667 111.328 9.33333 110.815 9.64C110.302 9.94667 109.698 10.1 109.005 10.1ZM109.005 8.87C109.552 8.87 109.952 8.67333 110.205 8.28C110.458 7.88 110.585 7.23 110.585 6.33C110.585 5.41 110.455 4.74333 110.195 4.33C109.942 3.91 109.545 3.7 109.005 3.7C108.458 3.7 108.055 3.91 107.795 4.33C107.535 4.75 107.405 5.41667 107.405 6.33C107.405 7.22333 107.532 7.87 107.785 8.27C108.045 8.67 108.452 8.87 109.005 8.87ZM120.589 9.73C120.616 9.80333 120.612 9.86667 120.579 9.92C120.552 9.97333 120.506 10 120.439 10H118.969C118.856 10 118.782 9.94 118.749 9.82L117.669 7.02C117.629 6.92667 117.536 6.88 117.389 6.88H116.439C116.392 6.88 116.359 6.89333 116.339 6.92C116.326 6.94667 116.319 6.97 116.319 6.99V9.76C116.319 9.92 116.229 10 116.049 10H114.779C114.699 10 114.642 9.98333 114.609 9.95C114.582 9.91667 114.569 9.86667 114.569 9.8V2.77C114.569 2.64333 114.622 2.58 114.729 2.58H117.849C118.742 2.58 119.436 2.75667 119.929 3.11C120.429 3.46333 120.679 3.96667 120.679 4.62C120.679 4.96 120.616 5.26333 120.489 5.53C120.362 5.79667 120.196 6.02 119.989 6.2C119.782 6.37333 119.556 6.50333 119.309 6.59C119.249 6.61 119.236 6.66 119.269 6.74L120.589 9.73ZM117.689 5.7C118.069 5.7 118.359 5.62 118.559 5.46C118.766 5.29333 118.869 5.05333 118.869 4.74C118.869 4.41333 118.766 4.16667 118.559 4C118.352 3.83333 118.079 3.75 117.739 3.75H116.509C116.382 3.75 116.319 3.80667 116.319 3.92V5.53C116.319 5.64333 116.366 5.7 116.459 5.7H117.689ZM122.318 2.76C122.318 2.70667 122.335 2.66333 122.368 2.63C122.402 2.59667 122.452 2.58 122.518 2.58H128.258C128.332 2.58 128.382 2.59667 128.408 2.63C128.442 2.66333 128.458 2.70667 128.458 2.76V3.69C128.458 3.79 128.398 3.84 128.278 3.84H126.408C126.335 3.84 126.298 3.87333 126.298 3.94V9.81C126.298 9.93667 126.242 10 126.128 10H124.698C124.598 10 124.548 9.94333 124.548 9.83V3.97C124.548 3.88333 124.512 3.84 124.438 3.84H122.508C122.382 3.84 122.318 3.79 122.318 3.69V2.76ZM132.085 2.58C132.192 2.58 132.245 2.64 132.245 2.76V9.76C132.245 9.84667 132.222 9.91 132.175 9.95C132.135 9.98333 132.068 10 131.975 10H130.715C130.628 10 130.568 9.98333 130.535 9.95C130.508 9.91667 130.495 9.86333 130.495 9.79V2.77C130.495 2.64333 130.548 2.58 130.655 2.58H132.085ZM134.499 10C134.419 10 134.363 9.98667 134.329 9.96C134.303 9.93333 134.289 9.88 134.289 9.8V9.44C134.289 9.35333 134.299 9.29 134.319 9.25C134.339 9.20333 134.386 9.13 134.459 9.03L137.869 4C137.923 3.91333 137.896 3.87 137.789 3.87H134.729C134.663 3.87 134.616 3.85667 134.589 3.83C134.569 3.79667 134.559 3.74667 134.559 3.68V2.75C134.559 2.63667 134.606 2.58 134.699 2.58H140.229C140.329 2.58 140.379 2.63333 140.379 2.74V3.15C140.379 3.21 140.369 3.26333 140.349 3.31C140.329 3.35 140.293 3.40667 140.239 3.48L136.749 8.58C136.716 8.62667 136.713 8.66 136.739 8.68C136.766 8.69333 136.799 8.7 136.839 8.7H140.159C140.279 8.7 140.339 8.75 140.339 8.85V9.82C140.339 9.87333 140.323 9.91667 140.289 9.95C140.263 9.98333 140.216 10 140.149 10H134.499Z" fill="black"/>
</svg>
