<svg width="430" height="12" viewBox="0 0 430 12" fill="none" xmlns="http://www.w3.org/2000/svg">
<path d="M0.89 10C0.83 10 0.783333 9.98333 0.75 9.95C0.716667 9.91667 0.7 9.87333 0.7 9.82V2.79C0.7 2.73 0.716667 2.68 0.75 2.64C0.79 2.6 0.84 2.58 0.9 2.58H3.61C4.59 2.58 5.33667 2.74667 5.85 3.08C6.37 3.40667 6.63 3.89 6.63 4.53C6.63 4.89667 6.53 5.20667 6.33 5.46C6.13667 5.71333 5.8 5.94333 5.32 6.15C5.3 6.15667 5.29 6.17 5.29 6.19C5.29 6.21 5.3 6.22333 5.32 6.23C5.84667 6.40333 6.22667 6.63 6.46 6.91C6.69333 7.18333 6.81 7.54333 6.81 7.99C6.81 8.67 6.55333 9.17667 6.04 9.51C5.52667 9.83667 4.76 10 3.74 10H0.89ZM3.69 8.82C4.12333 8.82 4.44667 8.73 4.66 8.55C4.88 8.37 4.99 8.13 4.99 7.83C4.99 7.61667 4.93667 7.44 4.83 7.3C4.72333 7.15333 4.57667 7.04333 4.39 6.97C4.21 6.89667 4 6.86 3.76 6.86H2.64C2.51333 6.86 2.45 6.91667 2.45 7.03V8.63C2.45 8.75667 2.49667 8.82 2.59 8.82H3.69ZM3.76 5.64C3.91333 5.64 4.05667 5.62333 4.19 5.59C4.33 5.55667 4.45 5.5 4.55 5.42C4.65667 5.34 4.74 5.24333 4.8 5.13C4.86667 5.01667 4.9 4.88333 4.9 4.73C4.9 4.41667 4.78333 4.17667 4.55 4.01C4.32333 3.84333 4.03 3.76 3.67 3.76H2.64C2.51333 3.76 2.45 3.81667 2.45 3.93V5.46C2.45 5.58 2.49667 5.64 2.59 5.64H3.76ZM14.7555 2.58C14.8221 2.58 14.8655 2.6 14.8855 2.64C14.9055 2.67333 14.8988 2.72 14.8655 2.78L12.5155 6.63C12.4755 6.69 12.4521 6.75333 12.4455 6.82C12.4388 6.88 12.4355 6.99333 12.4355 7.16V9.76C12.4355 9.92 12.3421 10 12.1555 10H10.9055C10.8188 10 10.7588 9.98333 10.7255 9.95C10.6988 9.91667 10.6855 9.86333 10.6855 9.79V7.1C10.6855 7.00667 10.6755 6.93667 10.6555 6.89C10.6355 6.84333 10.6055 6.79 10.5655 6.73L8.19547 2.81C8.15547 2.74333 8.1488 2.69 8.17547 2.65C8.20214 2.60333 8.2588 2.58 8.34547 2.58H9.84547C9.93214 2.58 9.99214 2.59333 10.0255 2.62C10.0588 2.64667 10.0955 2.69333 10.1355 2.76L11.6155 5.36C11.6555 5.42667 11.6888 5.46333 11.7155 5.47C11.7421 5.47 11.7721 5.44 11.8055 5.38L13.2655 2.76C13.3055 2.68667 13.3421 2.64 13.3755 2.62C13.4155 2.59333 13.4755 2.58 13.5555 2.58H14.7555Z" fill="black"/>
<path d="M27.72 9.73C27.7467 9.80333 27.7433 9.86667 27.71 9.92C27.6833 9.97333 27.6367 10 27.57 10H26.1C25.9867 10 25.9133 9.94 25.88 9.82L24.8 7.02C24.76 6.92667 24.6667 6.88 24.52 6.88H23.57C23.5233 6.88 23.49 6.89333 23.47 6.92C23.4567 6.94667 23.45 6.97 23.45 6.99V9.76C23.45 9.92 23.36 10 23.18 10H21.91C21.83 10 21.7733 9.98333 21.74 9.95C21.7133 9.91667 21.7 9.86667 21.7 9.8V2.77C21.7 2.64333 21.7533 2.58 21.86 2.58H24.98C25.8733 2.58 26.5667 2.75667 27.06 3.11C27.56 3.46333 27.81 3.96667 27.81 4.62C27.81 4.96 27.7467 5.26333 27.62 5.53C27.4933 5.79667 27.3267 6.02 27.12 6.2C26.9133 6.37333 26.6867 6.50333 26.44 6.59C26.38 6.61 26.3667 6.66 26.4 6.74L27.72 9.73ZM24.82 5.7C25.2 5.7 25.49 5.62 25.69 5.46C25.8967 5.29333 26 5.05333 26 4.74C26 4.41333 25.8967 4.16667 25.69 4C25.4833 3.83333 25.21 3.75 24.87 3.75H23.64C23.5133 3.75 23.45 3.80667 23.45 3.92V5.53C23.45 5.64333 23.4967 5.7 23.59 5.7H24.82ZM29.9168 2.77C29.9168 2.64333 29.9701 2.58 30.0768 2.58H35.1168C35.2168 2.58 35.2668 2.63667 35.2668 2.75L35.2568 3.65C35.2568 3.79 35.1868 3.86 35.0468 3.86H31.8568C31.7301 3.86 31.6668 3.91333 31.6668 4.02V5.47C31.6668 5.58333 31.7168 5.64 31.8168 5.64H33.9368C34.0501 5.64 34.1068 5.69333 34.1068 5.8V6.76C34.1068 6.8 34.0935 6.83333 34.0668 6.86C34.0468 6.88667 34.0068 6.9 33.9468 6.9H31.8068C31.7135 6.9 31.6668 6.94 31.6668 7.02V8.59C31.6668 8.67667 31.7035 8.72 31.7768 8.72H35.1968C35.3168 8.72 35.3768 8.77 35.3768 8.87V9.82C35.3768 9.87333 35.3601 9.91667 35.3268 9.95C35.3001 9.98333 35.2501 10 35.1768 10H30.1368C29.9901 10 29.9168 9.93 29.9168 9.79V2.77ZM37.0898 2.76C37.0898 2.70667 37.1064 2.66333 37.1398 2.63C37.1731 2.59667 37.2231 2.58 37.2898 2.58H43.0298C43.1031 2.58 43.1531 2.59667 43.1798 2.63C43.2131 2.66333 43.2298 2.70667 43.2298 2.76V3.69C43.2298 3.79 43.1698 3.84 43.0498 3.84H41.1798C41.1064 3.84 41.0698 3.87333 41.0698 3.94V9.81C41.0698 9.93667 41.0131 10 40.8998 10H39.4698C39.3698 10 39.3198 9.94333 39.3198 9.83V3.97C39.3198 3.88333 39.2831 3.84 39.2098 3.84H37.2798C37.1531 3.84 37.0898 3.79 37.0898 3.69V2.76ZM44.0015 10C43.9415 10 43.8982 9.97333 43.8715 9.92C43.8448 9.86667 43.8448 9.79667 43.8715 9.71L46.3615 2.78C46.3882 2.70667 46.4182 2.65667 46.4515 2.63C46.4848 2.59667 46.5415 2.58 46.6215 2.58H48.1215C48.2682 2.58 48.3682 2.65333 48.4215 2.8L50.8915 9.73C50.9115 9.78333 50.9115 9.84333 50.8915 9.91C50.8715 9.97 50.8315 10 50.7715 10H49.3015C49.2015 10 49.1382 9.95333 49.1115 9.86L48.5915 8.4C48.5848 8.36667 48.5715 8.34 48.5515 8.32C48.5382 8.3 48.5082 8.29 48.4615 8.29H46.0215C45.9548 8.29 45.9115 8.32333 45.8915 8.39L45.3615 9.87C45.3482 9.91 45.3248 9.94333 45.2915 9.97C45.2648 9.99 45.2182 10 45.1515 10H44.0015ZM48.0515 6.96C48.1448 6.96 48.1748 6.90333 48.1415 6.79L47.3015 4.45C47.2815 4.41 47.2582 4.39 47.2315 4.39C47.2115 4.39 47.1915 4.41333 47.1715 4.46L46.3215 6.79C46.2748 6.90333 46.3048 6.96 46.4115 6.96H48.0515ZM55.6269 2.76C55.6269 2.70667 55.6435 2.66333 55.6769 2.63C55.7102 2.59667 55.7602 2.58 55.8269 2.58H61.5669C61.6402 2.58 61.6902 2.59667 61.7169 2.63C61.7502 2.66333 61.7669 2.70667 61.7669 2.76V3.69C61.7669 3.79 61.7069 3.84 61.5869 3.84H59.7169C59.6435 3.84 59.6069 3.87333 59.6069 3.94V9.81C59.6069 9.93667 59.5502 10 59.4369 10H58.0069C57.9069 10 57.8569 9.94333 57.8569 9.83V3.97C57.8569 3.88333 57.8202 3.84 57.7469 3.84H55.8169C55.6902 3.84 55.6269 3.79 55.6269 3.69V2.76ZM66.5343 10.1C65.8276 10.1 65.2176 9.95 64.7043 9.65C64.191 9.34333 63.7943 8.90667 63.5143 8.34C63.241 7.77333 63.1043 7.1 63.1043 6.32C63.1043 5.52667 63.2443 4.84333 63.5243 4.27C63.811 3.69667 64.211 3.25667 64.7243 2.95C65.2376 2.63667 65.841 2.48 66.5343 2.48C67.2276 2.48 67.8276 2.63667 68.3343 2.95C68.8476 3.25667 69.2443 3.69667 69.5243 4.27C69.8043 4.83667 69.9443 5.51667 69.9443 6.31C69.9443 7.09 69.8043 7.76333 69.5243 8.33C69.251 8.89667 68.8576 9.33333 68.3443 9.64C67.831 9.94667 67.2276 10.1 66.5343 10.1ZM66.5343 8.87C67.081 8.87 67.481 8.67333 67.7343 8.28C67.9876 7.88 68.1143 7.23 68.1143 6.33C68.1143 5.41 67.9843 4.74333 67.7243 4.33C67.471 3.91 67.0743 3.7 66.5343 3.7C65.9876 3.7 65.5843 3.91 65.3243 4.33C65.0643 4.75 64.9343 5.41667 64.9343 6.33C64.9343 7.22333 65.061 7.87 65.3143 8.27C65.5743 8.67 65.981 8.87 66.5343 8.87ZM78.1184 9.73C78.1451 9.80333 78.1418 9.86667 78.1084 9.92C78.0818 9.97333 78.0351 10 77.9684 10H76.4984C76.3851 10 76.3118 9.94 76.2784 9.82L75.1984 7.02C75.1584 6.92667 75.0651 6.88 74.9184 6.88H73.9684C73.9218 6.88 73.8884 6.89333 73.8684 6.92C73.8551 6.94667 73.8484 6.97 73.8484 6.99V9.76C73.8484 9.92 73.7584 10 73.5784 10H72.3084C72.2284 10 72.1718 9.98333 72.1384 9.95C72.1118 9.91667 72.0984 9.86667 72.0984 9.8V2.77C72.0984 2.64333 72.1518 2.58 72.2584 2.58H75.3784C76.2718 2.58 76.9651 2.75667 77.4584 3.11C77.9584 3.46333 78.2084 3.96667 78.2084 4.62C78.2084 4.96 78.1451 5.26333 78.0184 5.53C77.8918 5.79667 77.7251 6.02 77.5184 6.2C77.3118 6.37333 77.0851 6.50333 76.8384 6.59C76.7784 6.61 76.7651 6.66 76.7984 6.74L78.1184 9.73ZM75.2184 5.7C75.5984 5.7 75.8884 5.62 76.0884 5.46C76.2951 5.29333 76.3984 5.05333 76.3984 4.74C76.3984 4.41333 76.2951 4.16667 76.0884 4C75.8818 3.83333 75.6084 3.75 75.2684 3.75H74.0384C73.9118 3.75 73.8484 3.80667 73.8484 3.92V5.53C73.8484 5.64333 73.8951 5.7 73.9884 5.7H75.2184ZM86.3852 4.89C86.3852 5.38333 86.2686 5.8 86.0352 6.14C85.8019 6.47333 85.4819 6.72667 85.0752 6.9C84.6752 7.07333 84.2086 7.16 83.6752 7.16H82.1752C82.1019 7.16 82.0652 7.19667 82.0652 7.27V9.77C82.0652 9.92333 81.9786 10 81.8052 10H80.5252C80.4452 10 80.3886 9.98333 80.3552 9.95C80.3286 9.91667 80.3152 9.86667 80.3152 9.8V2.77C80.3152 2.64333 80.3686 2.58 80.4752 2.58H83.4752C84.0086 2.58 84.4952 2.66333 84.9352 2.83C85.3819 2.99667 85.7352 3.25 85.9952 3.59C86.2552 3.93 86.3852 4.36333 86.3852 4.89ZM84.5852 4.86C84.5852 4.62667 84.5352 4.43667 84.4352 4.29C84.3352 4.13667 84.1919 4.02333 84.0052 3.95C83.8186 3.87667 83.6052 3.84 83.3652 3.84H82.2552C82.1286 3.84 82.0652 3.89667 82.0652 4.01V5.72C82.0652 5.84667 82.1119 5.91 82.2052 5.91H83.4352C83.7886 5.91 84.0686 5.81667 84.2752 5.63C84.4819 5.44333 84.5852 5.18667 84.5852 4.86ZM90.3437 6.83C90.257 6.83 90.2137 6.87333 90.2137 6.96V9.77C90.2137 9.92333 90.1237 10 89.9437 10H88.6837C88.597 10 88.537 9.98333 88.5037 9.95C88.477 9.91667 88.4637 9.86333 88.4637 9.79V2.77C88.4637 2.64333 88.517 2.58 88.6237 2.58H90.0537C90.1603 2.58 90.2137 2.64 90.2137 2.76V5.32C90.2137 5.43333 90.2637 5.49 90.3637 5.49H92.6737C92.7803 5.49 92.8337 5.43667 92.8337 5.33V2.76C92.8337 2.64 92.8837 2.58 92.9837 2.58H94.4137C94.527 2.58 94.5837 2.64333 94.5837 2.77V9.79C94.5837 9.86333 94.567 9.91667 94.5337 9.95C94.507 9.98333 94.4503 10 94.3637 10H93.0937C92.9203 10 92.8337 9.92333 92.8337 9.77V6.96C92.8337 6.87333 92.787 6.83 92.6937 6.83H90.3437ZM103.173 2.58C103.24 2.58 103.283 2.6 103.303 2.64C103.323 2.67333 103.317 2.72 103.283 2.78L100.933 6.63C100.893 6.69 100.87 6.75333 100.863 6.82C100.857 6.88 100.853 6.99333 100.853 7.16V9.76C100.853 9.92 100.76 10 100.573 10H99.3234C99.2368 10 99.1768 9.98333 99.1434 9.95C99.1168 9.91667 99.1034 9.86333 99.1034 9.79V7.1C99.1034 7.00667 99.0934 6.93667 99.0734 6.89C99.0534 6.84333 99.0234 6.79 98.9834 6.73L96.6134 2.81C96.5734 2.74333 96.5668 2.69 96.5934 2.65C96.6201 2.60333 96.6768 2.58 96.7634 2.58H98.2634C98.3501 2.58 98.4101 2.59333 98.4434 2.62C98.4768 2.64667 98.5134 2.69333 98.5534 2.76L100.033 5.36C100.073 5.42667 100.107 5.46333 100.133 5.47C100.16 5.47 100.19 5.44 100.223 5.38L101.683 2.76C101.723 2.68667 101.76 2.64 101.793 2.62C101.833 2.59333 101.893 2.58 101.973 2.58H103.173Z" fill="black"/>
</svg>
