<svg width="388" height="13" viewBox="0 0 388 13" fill="none" xmlns="http://www.w3.org/2000/svg">
<path d="M1.89 10C1.83 10 1.78333 9.98333 1.75 9.95C1.71667 9.91667 1.7 9.87333 1.7 9.82V2.79C1.7 2.73 1.71667 2.68 1.75 2.64C1.79 2.6 1.84 2.58 1.9 2.58H4.61C5.59 2.58 6.33667 2.74667 6.85 3.08C7.37 3.40667 7.63 3.89 7.63 4.53C7.63 4.89667 7.53 5.20667 7.33 5.46C7.13667 5.71333 6.8 5.94333 6.32 6.15C6.3 6.15667 6.29 6.17 6.29 6.19C6.29 6.21 6.3 6.22333 6.32 6.23C6.84667 6.40333 7.22667 6.63 7.46 6.91C7.69333 7.18333 7.81 7.54333 7.81 7.99C7.81 8.67 7.55333 9.17667 7.04 9.51C6.52667 9.83667 5.76 10 4.74 10H1.89ZM4.69 8.82C5.12333 8.82 5.44667 8.73 5.66 8.55C5.88 8.37 5.99 8.13 5.99 7.83C5.99 7.61667 5.93667 7.44 5.83 7.3C5.72333 7.15333 5.57667 7.04333 5.39 6.97C5.21 6.89667 5 6.86 4.76 6.86H3.64C3.51333 6.86 3.45 6.91667 3.45 7.03V8.63C3.45 8.75667 3.49667 8.82 3.59 8.82H4.69ZM4.76 5.64C4.91333 5.64 5.05667 5.62333 5.19 5.59C5.33 5.55667 5.45 5.5 5.55 5.42C5.65667 5.34 5.74 5.24333 5.8 5.13C5.86667 5.01667 5.9 4.88333 5.9 4.73C5.9 4.41667 5.78333 4.17667 5.55 4.01C5.32333 3.84333 5.03 3.76 4.67 3.76H3.64C3.51333 3.76 3.45 3.81667 3.45 3.93V5.46C3.45 5.58 3.49667 5.64 3.59 5.64H4.76ZM15.7555 2.58C15.8221 2.58 15.8655 2.6 15.8855 2.64C15.9055 2.67333 15.8988 2.72 15.8655 2.78L13.5155 6.63C13.4755 6.69 13.4521 6.75333 13.4455 6.82C13.4388 6.88 13.4355 6.99333 13.4355 7.16V9.76C13.4355 9.92 13.3421 10 13.1555 10H11.9055C11.8188 10 11.7588 9.98333 11.7255 9.95C11.6988 9.91667 11.6855 9.86333 11.6855 9.79V7.1C11.6855 7.00667 11.6755 6.93667 11.6555 6.89C11.6355 6.84333 11.6055 6.79 11.5655 6.73L9.19547 2.81C9.15547 2.74333 9.1488 2.69 9.17547 2.65C9.20214 2.60333 9.2588 2.58 9.34547 2.58H10.8455C10.9321 2.58 10.9921 2.59333 11.0255 2.62C11.0588 2.64667 11.0955 2.69333 11.1355 2.76L12.6155 5.36C12.6555 5.42667 12.6888 5.46333 12.7155 5.47C12.7421 5.47 12.7721 5.44 12.8055 5.38L14.2655 2.76C14.3055 2.68667 14.3421 2.64 14.3755 2.62C14.4155 2.59333 14.4755 2.58 14.5555 2.58H15.7555Z" fill="black"/>
<path d="M28.72 9.73C28.7467 9.80333 28.7433 9.86667 28.71 9.92C28.6833 9.97333 28.6367 10 28.57 10H27.1C26.9867 10 26.9133 9.94 26.88 9.82L25.8 7.02C25.76 6.92667 25.6667 6.88 25.52 6.88H24.57C24.5233 6.88 24.49 6.89333 24.47 6.92C24.4567 6.94667 24.45 6.97 24.45 6.99V9.76C24.45 9.92 24.36 10 24.18 10H22.91C22.83 10 22.7733 9.98333 22.74 9.95C22.7133 9.91667 22.7 9.86667 22.7 9.8V2.77C22.7 2.64333 22.7533 2.58 22.86 2.58H25.98C26.8733 2.58 27.5667 2.75667 28.06 3.11C28.56 3.46333 28.81 3.96667 28.81 4.62C28.81 4.96 28.7467 5.26333 28.62 5.53C28.4933 5.79667 28.3267 6.02 28.12 6.2C27.9133 6.37333 27.6867 6.50333 27.44 6.59C27.38 6.61 27.3667 6.66 27.4 6.74L28.72 9.73ZM25.82 5.7C26.2 5.7 26.49 5.62 26.69 5.46C26.8967 5.29333 27 5.05333 27 4.74C27 4.41333 26.8967 4.16667 26.69 4C26.4833 3.83333 26.21 3.75 25.87 3.75H24.64C24.5133 3.75 24.45 3.80667 24.45 3.92V5.53C24.45 5.64333 24.4967 5.7 24.59 5.7H25.82ZM33.9991 10.1C33.2925 10.1 32.6825 9.95 32.1691 9.65C31.6558 9.34333 31.2591 8.90667 30.9791 8.34C30.7058 7.77333 30.5691 7.1 30.5691 6.32C30.5691 5.52667 30.7091 4.84333 30.9891 4.27C31.2758 3.69667 31.6758 3.25667 32.1891 2.95C32.7025 2.63667 33.3058 2.48 33.9991 2.48C34.6925 2.48 35.2925 2.63667 35.7991 2.95C36.3125 3.25667 36.7091 3.69667 36.9891 4.27C37.2691 4.83667 37.4091 5.51667 37.4091 6.31C37.4091 7.09 37.2691 7.76333 36.9891 8.33C36.7158 8.89667 36.3225 9.33333 35.8091 9.64C35.2958 9.94667 34.6925 10.1 33.9991 10.1ZM33.9991 8.87C34.5458 8.87 34.9458 8.67333 35.1991 8.28C35.4525 7.88 35.5791 7.23 35.5791 6.33C35.5791 5.41 35.4491 4.74333 35.1891 4.33C34.9358 3.91 34.5391 3.7 33.9991 3.7C33.4525 3.7 33.0491 3.91 32.7891 4.33C32.5291 4.75 32.3991 5.41667 32.3991 6.33C32.3991 7.22333 32.5258 7.87 32.7791 8.27C33.0391 8.67 33.4458 8.87 33.9991 8.87ZM43.628 4.33C43.4813 4.17 43.298 4.02667 43.078 3.9C42.8646 3.77333 42.558 3.71 42.158 3.71C41.738 3.71 41.4246 3.78667 41.218 3.94C41.0113 4.08667 40.908 4.27667 40.908 4.51C40.908 4.59 40.928 4.67667 40.968 4.77C41.008 4.86333 41.088 4.95333 41.208 5.04C41.328 5.12667 41.498 5.20333 41.718 5.27L43.298 5.72C43.9113 5.88667 44.358 6.15667 44.638 6.53C44.918 6.89667 45.058 7.32333 45.058 7.81C45.058 8.27667 44.938 8.68333 44.698 9.03C44.458 9.37 44.1146 9.63333 43.668 9.82C43.2213 10.0067 42.6913 10.1 42.078 10.1C41.6246 10.1 41.198 10.05 40.798 9.95C40.4046 9.84333 40.0546 9.69333 39.748 9.5C39.448 9.3 39.2113 9.07 39.038 8.81C39.0046 8.74333 38.9913 8.69 38.998 8.65C39.0046 8.60333 39.038 8.55667 39.098 8.51L39.868 7.98C39.948 7.93333 40.0113 7.91333 40.058 7.92C40.1113 7.92667 40.158 7.95333 40.198 8C40.358 8.2 40.5146 8.36667 40.668 8.5C40.828 8.63333 41.0113 8.73 41.218 8.79C41.4246 8.85 41.6713 8.88 41.958 8.88C42.3913 8.88 42.738 8.81333 42.998 8.68C43.258 8.54 43.388 8.32667 43.388 8.04C43.388 7.92667 43.3613 7.82333 43.308 7.73C43.2546 7.63 43.168 7.54333 43.048 7.47C42.9346 7.39 42.7713 7.31667 42.558 7.25L41.048 6.82C40.6546 6.70667 40.3246 6.54667 40.058 6.34C39.7913 6.13333 39.588 5.89 39.448 5.61C39.3146 5.33 39.248 5.03667 39.248 4.73C39.248 4.30333 39.3646 3.92 39.598 3.58C39.838 3.24 40.1713 2.97333 40.598 2.78C41.0313 2.58 41.5346 2.48 42.108 2.48C42.488 2.48 42.8413 2.52333 43.168 2.61C43.5013 2.69667 43.8013 2.81667 44.068 2.97C44.3346 3.12333 44.5513 3.31 44.718 3.53C44.7446 3.56333 44.7646 3.60333 44.778 3.65C44.7913 3.69 44.7713 3.73333 44.718 3.78L43.878 4.4C43.838 4.42667 43.8013 4.43667 43.768 4.43C43.7346 4.41667 43.688 4.38333 43.628 4.33ZM46.603 10C46.543 10 46.4997 9.97333 46.473 9.92C46.4464 9.86667 46.4464 9.79667 46.473 9.71L48.963 2.78C48.9897 2.70667 49.0197 2.65667 49.053 2.63C49.0864 2.59667 49.143 2.58 49.223 2.58H50.723C50.8697 2.58 50.9697 2.65333 51.023 2.8L53.493 9.73C53.513 9.78333 53.513 9.84333 53.493 9.91C53.473 9.97 53.433 10 53.373 10H51.903C51.803 10 51.7397 9.95333 51.713 9.86L51.193 8.4C51.1864 8.36667 51.173 8.34 51.153 8.32C51.1397 8.3 51.1097 8.29 51.063 8.29H48.623C48.5564 8.29 48.513 8.32333 48.493 8.39L47.963 9.87C47.9497 9.91 47.9264 9.94333 47.893 9.97C47.8664 9.99 47.8197 10 47.753 10H46.603ZM50.653 6.96C50.7464 6.96 50.7764 6.90333 50.743 6.79L49.903 4.45C49.883 4.41 49.8597 4.39 49.833 4.39C49.813 4.39 49.793 4.41333 49.773 4.46L48.923 6.79C48.8764 6.90333 48.9064 6.96 49.013 6.96H50.653ZM61.5979 2.58C61.6846 2.58 61.7279 2.63 61.7279 2.73V9.84C61.7279 9.88667 61.7112 9.92667 61.6779 9.96C61.6446 9.98667 61.5979 10 61.5379 10H60.5279C60.4746 10 60.4312 9.99333 60.3979 9.98C60.3646 9.96667 60.3246 9.93333 60.2779 9.88L57.0879 5.4C57.0612 5.36667 57.0346 5.35333 57.0079 5.36C56.9879 5.36667 56.9779 5.38667 56.9779 5.42V9.82C56.9846 9.94 56.9179 10 56.7779 10H55.7379C55.6046 10 55.5379 9.94333 55.5379 9.83V2.77C55.5379 2.64333 55.5979 2.58 55.7179 2.58H56.9279C57.0012 2.58 57.0546 2.59 57.0879 2.61C57.1279 2.63 57.1712 2.67 57.2179 2.73L60.1579 6.92C60.1979 6.97333 60.2312 6.99667 60.2579 6.99C60.2912 6.98333 60.3079 6.95 60.3079 6.89V2.76C60.3079 2.64 60.3679 2.58 60.4879 2.58H61.5979ZM70.1858 2.58C70.2724 2.58 70.3158 2.63 70.3158 2.73V9.84C70.3158 9.88667 70.2991 9.92667 70.2658 9.96C70.2324 9.98667 70.1858 10 70.1258 10H69.1158C69.0624 10 69.0191 9.99333 68.9858 9.98C68.9524 9.96667 68.9124 9.93333 68.8658 9.88L65.6758 5.4C65.6491 5.36667 65.6224 5.35333 65.5958 5.36C65.5758 5.36667 65.5658 5.38667 65.5658 5.42V9.82C65.5724 9.94 65.5058 10 65.3658 10H64.3258C64.1924 10 64.1258 9.94333 64.1258 9.83V2.77C64.1258 2.64333 64.1858 2.58 64.3058 2.58H65.5158C65.5891 2.58 65.6424 2.59 65.6758 2.61C65.7158 2.63 65.7591 2.67 65.8058 2.73L68.7458 6.92C68.7858 6.97333 68.8191 6.99667 68.8458 6.99C68.8791 6.98333 68.8958 6.95 68.8958 6.89V2.76C68.8958 2.64 68.9558 2.58 69.0758 2.58H70.1858ZM72.4937 10C72.4337 10 72.3903 9.97333 72.3637 9.92C72.337 9.86667 72.337 9.79667 72.3637 9.71L74.8537 2.78C74.8803 2.70667 74.9103 2.65667 74.9437 2.63C74.977 2.59667 75.0337 2.58 75.1137 2.58H76.6137C76.7603 2.58 76.8603 2.65333 76.9137 2.8L79.3837 9.73C79.4037 9.78333 79.4037 9.84333 79.3837 9.91C79.3637 9.97 79.3237 10 79.2637 10H77.7937C77.6937 10 77.6303 9.95333 77.6037 9.86L77.0837 8.4C77.077 8.36667 77.0637 8.34 77.0437 8.32C77.0303 8.3 77.0003 8.29 76.9537 8.29H74.5137C74.447 8.29 74.4037 8.32333 74.3837 8.39L73.8537 9.87C73.8403 9.91 73.817 9.94333 73.7837 9.97C73.757 9.99 73.7103 10 73.6437 10H72.4937ZM76.5437 6.96C76.637 6.96 76.667 6.90333 76.6337 6.79L75.7937 4.45C75.7737 4.41 75.7503 4.39 75.7237 4.39C75.7037 4.39 75.6837 4.41333 75.6637 4.46L74.8137 6.79C74.767 6.90333 74.797 6.96 74.9037 6.96H76.5437ZM87.6691 10.1C86.9624 10.1 86.3524 9.95 85.8391 9.65C85.3257 9.34333 84.9291 8.90667 84.6491 8.34C84.3757 7.77333 84.2391 7.1 84.2391 6.32C84.2391 5.52667 84.3791 4.84333 84.6591 4.27C84.9457 3.69667 85.3457 3.25667 85.8591 2.95C86.3724 2.63667 86.9757 2.48 87.6691 2.48C88.3624 2.48 88.9624 2.63667 89.4691 2.95C89.9824 3.25667 90.3791 3.69667 90.6591 4.27C90.9391 4.83667 91.0791 5.51667 91.0791 6.31C91.0791 7.09 90.9391 7.76333 90.6591 8.33C90.3857 8.89667 89.9924 9.33333 89.4791 9.64C88.9657 9.94667 88.3624 10.1 87.6691 10.1ZM87.6691 8.87C88.2157 8.87 88.6157 8.67333 88.8691 8.28C89.1224 7.88 89.2491 7.23 89.2491 6.33C89.2491 5.41 89.1191 4.74333 88.8591 4.33C88.6057 3.91 88.2091 3.7 87.6691 3.7C87.1224 3.7 86.7191 3.91 86.4591 4.33C86.1991 4.75 86.0691 5.41667 86.0691 6.33C86.0691 7.22333 86.1957 7.87 86.4491 8.27C86.7091 8.67 87.1157 8.87 87.6691 8.87ZM99.2932 2.58C99.3799 2.58 99.4232 2.63 99.4232 2.73V9.84C99.4232 9.88667 99.4065 9.92667 99.3732 9.96C99.3399 9.98667 99.2932 10 99.2332 10H98.2232C98.1699 10 98.1265 9.99333 98.0932 9.98C98.0599 9.96667 98.0199 9.93333 97.9732 9.88L94.7832 5.4C94.7565 5.36667 94.7299 5.35333 94.7032 5.36C94.6832 5.36667 94.6732 5.38667 94.6732 5.42V9.82C94.6799 9.94 94.6132 10 94.4732 10H93.4332C93.2999 10 93.2332 9.94333 93.2332 9.83V2.77C93.2332 2.64333 93.2932 2.58 93.4132 2.58H94.6232C94.6965 2.58 94.7499 2.59 94.7832 2.61C94.8232 2.63 94.8665 2.67 94.9132 2.73L97.8532 6.92C97.8932 6.97333 97.9265 6.99667 97.9532 6.99C97.9865 6.98333 98.0032 6.95 98.0032 6.89V2.76C98.0032 2.64 98.0632 2.58 98.1832 2.58H99.2932ZM102.041 2.58C102.161 2.58 102.321 2.58 102.521 2.58C102.728 2.58 102.941 2.58 103.161 2.58C103.388 2.58 103.601 2.58 103.801 2.58C104.001 2.58 104.158 2.58333 104.271 2.59C105.171 2.61 105.911 2.77333 106.491 3.08C107.071 3.38667 107.498 3.81 107.771 4.35C108.051 4.88333 108.191 5.52 108.191 6.26C108.191 7.02 108.044 7.68333 107.751 8.25C107.464 8.81 107.024 9.24333 106.431 9.55C105.844 9.85 105.108 10 104.221 10H102.051C101.898 10 101.821 9.92 101.821 9.76V2.79C101.821 2.71 101.838 2.65667 101.871 2.63C101.904 2.59667 101.961 2.58 102.041 2.58ZM103.671 3.82C103.604 3.82 103.571 3.86667 103.571 3.96V8.63C103.571 8.72333 103.614 8.77 103.701 8.77H103.891C104.438 8.77 104.894 8.69 105.261 8.53C105.628 8.36333 105.901 8.09667 106.081 7.73C106.268 7.36333 106.361 6.87667 106.361 6.27C106.361 5.68333 106.274 5.21333 106.101 4.86C105.934 4.5 105.674 4.23667 105.321 4.07C104.974 3.90333 104.531 3.82 103.991 3.82H103.671ZM116.351 9.73C116.378 9.80333 116.374 9.86667 116.341 9.92C116.314 9.97333 116.268 10 116.201 10H114.731C114.618 10 114.544 9.94 114.511 9.82L113.431 7.02C113.391 6.92667 113.298 6.88 113.151 6.88H112.201C112.154 6.88 112.121 6.89333 112.101 6.92C112.088 6.94667 112.081 6.97 112.081 6.99V9.76C112.081 9.92 111.991 10 111.811 10H110.541C110.461 10 110.404 9.98333 110.371 9.95C110.344 9.91667 110.331 9.86667 110.331 9.8V2.77C110.331 2.64333 110.384 2.58 110.491 2.58H113.611C114.504 2.58 115.198 2.75667 115.691 3.11C116.191 3.46333 116.441 3.96667 116.441 4.62C116.441 4.96 116.378 5.26333 116.251 5.53C116.124 5.79667 115.958 6.02 115.751 6.2C115.544 6.37333 115.318 6.50333 115.071 6.59C115.011 6.61 114.998 6.66 115.031 6.74L116.351 9.73ZM113.451 5.7C113.831 5.7 114.121 5.62 114.321 5.46C114.528 5.29333 114.631 5.05333 114.631 4.74C114.631 4.41333 114.528 4.16667 114.321 4C114.114 3.83333 113.841 3.75 113.501 3.75H112.271C112.144 3.75 112.081 3.80667 112.081 3.92V5.53C112.081 5.64333 112.128 5.7 112.221 5.7H113.451ZM120.138 2.58C120.244 2.58 120.298 2.64 120.298 2.76V9.76C120.298 9.84667 120.274 9.91 120.228 9.95C120.188 9.98333 120.121 10 120.028 10H118.768C118.681 10 118.621 9.98333 118.588 9.95C118.561 9.91667 118.548 9.86333 118.548 9.79V2.77C118.548 2.64333 118.601 2.58 118.708 2.58H120.138ZM125.822 2.48C126.209 2.48 126.569 2.53667 126.902 2.65C127.242 2.75667 127.545 2.91 127.812 3.11C128.079 3.31 128.295 3.54333 128.462 3.81C128.635 4.07667 128.749 4.36667 128.802 4.68C128.829 4.78667 128.832 4.85667 128.812 4.89C128.799 4.92333 128.762 4.94333 128.702 4.95L127.352 5.04C127.292 5.04 127.252 5.03 127.232 5.01C127.219 4.98333 127.205 4.94333 127.192 4.89C127.119 4.54333 126.975 4.26 126.762 4.04C126.549 3.81333 126.252 3.7 125.872 3.7C125.372 3.7 124.979 3.90333 124.692 4.31C124.412 4.71 124.272 5.36 124.272 6.26C124.272 7.15333 124.405 7.80333 124.672 8.21C124.945 8.61 125.352 8.81 125.892 8.81C126.279 8.81 126.612 8.71333 126.892 8.52C127.172 8.32667 127.402 7.99667 127.582 7.53C127.609 7.47 127.682 7.45 127.802 7.47L128.782 7.68C128.815 7.68667 128.845 7.70667 128.872 7.74C128.899 7.76667 128.905 7.83 128.892 7.93C128.859 8.07 128.792 8.23333 128.692 8.42C128.599 8.60667 128.472 8.8 128.312 9C128.152 9.19333 127.952 9.37333 127.712 9.54C127.479 9.70667 127.205 9.84333 126.892 9.95C126.579 10.05 126.222 10.1 125.822 10.1C125.135 10.1 124.535 9.93667 124.022 9.61C123.515 9.28333 123.125 8.83 122.852 8.25C122.579 7.67 122.442 6.99667 122.442 6.23C122.442 5.45667 122.579 4.79333 122.852 4.24C123.125 3.68 123.515 3.24667 124.022 2.94C124.529 2.63333 125.129 2.48 125.822 2.48ZM137.348 9.76C137.381 9.82 137.391 9.87667 137.378 9.93C137.365 9.97667 137.318 10 137.238 10H135.738C135.591 10 135.495 9.94667 135.448 9.84L133.838 6.7C133.791 6.62667 133.728 6.64 133.648 6.74L132.758 7.8C132.718 7.85333 132.698 7.92333 132.698 8.01V9.77C132.698 9.92333 132.608 10 132.428 10H131.168C131.081 10 131.021 9.98333 130.988 9.95C130.961 9.91667 130.948 9.86667 130.948 9.8V2.77C130.948 2.64333 131.001 2.58 131.108 2.58H132.548C132.648 2.58 132.698 2.63667 132.698 2.75V5.74C132.698 5.8 132.708 5.83333 132.728 5.84C132.755 5.84 132.785 5.82 132.818 5.78L135.238 2.74C135.278 2.68667 135.321 2.64667 135.368 2.62C135.415 2.59333 135.481 2.58 135.568 2.58H136.768C136.855 2.58 136.915 2.60333 136.948 2.65C136.988 2.69667 136.981 2.75 136.928 2.81L135.008 5.06C134.955 5.12667 134.948 5.20667 134.988 5.3L137.348 9.76ZM138.642 10C138.582 10 138.539 9.97333 138.512 9.92C138.485 9.86667 138.485 9.79667 138.512 9.71L141.002 2.78C141.029 2.70667 141.059 2.65667 141.092 2.63C141.125 2.59667 141.182 2.58 141.262 2.58H142.762C142.909 2.58 143.009 2.65333 143.062 2.8L145.532 9.73C145.552 9.78333 145.552 9.84333 145.532 9.91C145.512 9.97 145.472 10 145.412 10H143.942C143.842 10 143.779 9.95333 143.752 9.86L143.232 8.4C143.225 8.36667 143.212 8.34 143.192 8.32C143.179 8.3 143.149 8.29 143.102 8.29H140.662C140.595 8.29 140.552 8.32333 140.532 8.39L140.002 9.87C139.989 9.91 139.965 9.94333 139.932 9.97C139.905 9.99 139.859 10 139.792 10H138.642ZM142.692 6.96C142.785 6.96 142.815 6.90333 142.782 6.79L141.942 4.45C141.922 4.41 141.899 4.39 141.872 4.39C141.852 4.39 141.832 4.41333 141.812 4.46L140.962 6.79C140.915 6.90333 140.945 6.96 141.052 6.96H142.692Z" fill="black"/>
</svg>
