<svg width="388" height="13" viewBox="0 0 388 13" fill="none" xmlns="http://www.w3.org/2000/svg">
<path d="M1.89 11C1.83 11 1.78333 10.9833 1.75 10.95C1.71667 10.9167 1.7 10.8733 1.7 10.82V3.79C1.7 3.73 1.71667 3.68 1.75 3.64C1.79 3.6 1.84 3.58 1.9 3.58H4.61C5.59 3.58 6.33667 3.74667 6.85 4.08C7.37 4.40667 7.63 4.89 7.63 5.53C7.63 5.89667 7.53 6.20667 7.33 6.46C7.13667 6.71333 6.8 6.94333 6.32 7.15C6.3 7.15667 6.29 7.17 6.29 7.19C6.29 7.21 6.3 7.22333 6.32 7.23C6.84667 7.40333 7.22667 7.63 7.46 7.91C7.69333 8.18333 7.81 8.54333 7.81 8.99C7.81 9.67 7.55333 10.1767 7.04 10.51C6.52667 10.8367 5.76 11 4.74 11H1.89ZM4.69 9.82C5.12333 9.82 5.44667 9.73 5.66 9.55C5.88 9.37 5.99 9.13 5.99 8.83C5.99 8.61667 5.93667 8.44 5.83 8.3C5.72333 8.15333 5.57667 8.04333 5.39 7.97C5.21 7.89667 5 7.86 4.76 7.86H3.64C3.51333 7.86 3.45 7.91667 3.45 8.03V9.63C3.45 9.75667 3.49667 9.82 3.59 9.82H4.69ZM4.76 6.64C4.91333 6.64 5.05667 6.62333 5.19 6.59C5.33 6.55667 5.45 6.5 5.55 6.42C5.65667 6.34 5.74 6.24333 5.8 6.13C5.86667 6.01667 5.9 5.88333 5.9 5.73C5.9 5.41667 5.78333 5.17667 5.55 5.01C5.32333 4.84333 5.03 4.76 4.67 4.76H3.64C3.51333 4.76 3.45 4.81667 3.45 4.93V6.46C3.45 6.58 3.49667 6.64 3.59 6.64H4.76ZM15.7555 3.58C15.8221 3.58 15.8655 3.6 15.8855 3.64C15.9055 3.67333 15.8988 3.72 15.8655 3.78L13.5155 7.63C13.4755 7.69 13.4521 7.75333 13.4455 7.82C13.4388 7.88 13.4355 7.99333 13.4355 8.16V10.76C13.4355 10.92 13.3421 11 13.1555 11H11.9055C11.8188 11 11.7588 10.9833 11.7255 10.95C11.6988 10.9167 11.6855 10.8633 11.6855 10.79V8.1C11.6855 8.00667 11.6755 7.93667 11.6555 7.89C11.6355 7.84333 11.6055 7.79 11.5655 7.73L9.19547 3.81C9.15547 3.74333 9.1488 3.69 9.17547 3.65C9.20214 3.60333 9.2588 3.58 9.34547 3.58H10.8455C10.9321 3.58 10.9921 3.59333 11.0255 3.62C11.0588 3.64667 11.0955 3.69333 11.1355 3.76L12.6155 6.36C12.6555 6.42667 12.6888 6.46333 12.7155 6.47C12.7421 6.47 12.7721 6.44 12.8055 6.38L14.2655 3.76C14.3055 3.68667 14.3421 3.64 14.3755 3.62C14.4155 3.59333 14.4755 3.58 14.5555 3.58H15.7555Z" fill="black"/>
<path d="M26.96 5.33C26.8133 5.17 26.63 5.02667 26.41 4.9C26.1967 4.77333 25.89 4.71 25.49 4.71C25.07 4.71 24.7567 4.78667 24.55 4.94C24.3433 5.08667 24.24 5.27667 24.24 5.51C24.24 5.59 24.26 5.67667 24.3 5.77C24.34 5.86333 24.42 5.95333 24.54 6.04C24.66 6.12667 24.83 6.20333 25.05 6.27L26.63 6.72C27.2433 6.88667 27.69 7.15667 27.97 7.53C28.25 7.89667 28.39 8.32333 28.39 8.81C28.39 9.27667 28.27 9.68333 28.03 10.03C27.79 10.37 27.4467 10.6333 27 10.82C26.5533 11.0067 26.0233 11.1 25.41 11.1C24.9567 11.1 24.53 11.05 24.13 10.95C23.7367 10.8433 23.3867 10.6933 23.08 10.5C22.78 10.3 22.5433 10.07 22.37 9.81C22.3367 9.74333 22.3233 9.69 22.33 9.65C22.3367 9.60333 22.37 9.55667 22.43 9.51L23.2 8.98C23.28 8.93333 23.3433 8.91333 23.39 8.92C23.4433 8.92667 23.49 8.95333 23.53 9C23.69 9.2 23.8467 9.36667 24 9.5C24.16 9.63333 24.3433 9.73 24.55 9.79C24.7567 9.85 25.0033 9.88 25.29 9.88C25.7233 9.88 26.07 9.81333 26.33 9.68C26.59 9.54 26.72 9.32667 26.72 9.04C26.72 8.92667 26.6933 8.82333 26.64 8.73C26.5867 8.63 26.5 8.54333 26.38 8.47C26.2667 8.39 26.1033 8.31667 25.89 8.25L24.38 7.82C23.9867 7.70667 23.6567 7.54667 23.39 7.34C23.1233 7.13333 22.92 6.89 22.78 6.61C22.6467 6.33 22.58 6.03667 22.58 5.73C22.58 5.30333 22.6967 4.92 22.93 4.58C23.17 4.24 23.5033 3.97333 23.93 3.78C24.3633 3.58 24.8667 3.48 25.44 3.48C25.82 3.48 26.1733 3.52333 26.5 3.61C26.8333 3.69667 27.1333 3.81667 27.4 3.97C27.6667 4.12333 27.8833 4.31 28.05 4.53C28.0767 4.56333 28.0967 4.60333 28.11 4.65C28.1233 4.69 28.1033 4.73333 28.05 4.78L27.21 5.4C27.17 5.42667 27.1333 5.43667 27.1 5.43C27.0667 5.41667 27.02 5.38333 26.96 5.33ZM32.0576 3.58C32.1642 3.58 32.2176 3.64 32.2176 3.76V10.76C32.2176 10.8467 32.1942 10.91 32.1476 10.95C32.1076 10.9833 32.0409 11 31.9476 11H30.6876C30.6009 11 30.5409 10.9833 30.5076 10.95C30.4809 10.9167 30.4676 10.8633 30.4676 10.79V3.77C30.4676 3.64333 30.5209 3.58 30.6276 3.58H32.0576ZM34.8319 11C34.6919 11 34.6219 10.9233 34.6219 10.77V3.77C34.6219 3.64333 34.6785 3.58 34.7919 3.58H36.8619C36.9352 3.58 36.9885 3.59 37.0219 3.61C37.0552 3.63 37.0819 3.67 37.1019 3.73L38.6119 7.92C38.6319 7.98 38.6552 8.01 38.6819 8.01C38.7085 8.00333 38.7319 7.97333 38.7519 7.92L40.1919 3.81C40.2319 3.65667 40.3052 3.58 40.4119 3.58H42.5619C42.6619 3.58 42.7119 3.64 42.7119 3.76V10.76C42.7119 10.92 42.6285 11 42.4619 11H41.1719C41.0919 11 41.0352 10.9833 41.0019 10.95C40.9752 10.9167 40.9619 10.8667 40.9619 10.8V5.82C40.9619 5.77333 40.9485 5.75333 40.9219 5.76C40.9019 5.76 40.8852 5.78333 40.8719 5.83L39.1219 10.84C39.0819 10.9467 39.0119 11 38.9119 11H38.0819C37.9685 11 37.8952 10.9467 37.8619 10.84L36.1319 5.9C36.1119 5.84 36.0885 5.81333 36.0619 5.82C36.0419 5.82667 36.0319 5.85667 36.0319 5.91V10.82C36.0319 10.8867 36.0185 10.9333 35.9919 10.96C35.9719 10.9867 35.9252 11 35.8519 11H34.8319ZM45.1141 3.77C45.1141 3.64333 45.1674 3.58 45.2741 3.58H50.3141C50.4141 3.58 50.4641 3.63667 50.4641 3.75L50.4541 4.65C50.4541 4.79 50.3841 4.86 50.2441 4.86H47.0541C46.9274 4.86 46.8641 4.91333 46.8641 5.02V6.47C46.8641 6.58333 46.9141 6.64 47.0141 6.64H49.1341C49.2474 6.64 49.3041 6.69333 49.3041 6.8V7.76C49.3041 7.8 49.2907 7.83333 49.2641 7.86C49.2441 7.88667 49.2041 7.9 49.1441 7.9H47.0041C46.9107 7.9 46.8641 7.94 46.8641 8.02V9.59C46.8641 9.67667 46.9007 9.72 46.9741 9.72H50.3941C50.5141 9.72 50.5741 9.77 50.5741 9.87V10.82C50.5741 10.8733 50.5574 10.9167 50.5241 10.95C50.4974 10.9833 50.4474 11 50.3741 11H45.3341C45.1874 11 45.1141 10.93 45.1141 10.79V3.77ZM55.505 11.1C54.7983 11.1 54.1883 10.95 53.675 10.65C53.1617 10.3433 52.765 9.90667 52.485 9.34C52.2117 8.77333 52.075 8.1 52.075 7.32C52.075 6.52667 52.215 5.84333 52.495 5.27C52.7817 4.69667 53.1817 4.25667 53.695 3.95C54.2083 3.63667 54.8117 3.48 55.505 3.48C56.1983 3.48 56.7983 3.63667 57.305 3.95C57.8183 4.25667 58.215 4.69667 58.495 5.27C58.775 5.83667 58.915 6.51667 58.915 7.31C58.915 8.09 58.775 8.76333 58.495 9.33C58.2217 9.89667 57.8283 10.3333 57.315 10.64C56.8017 10.9467 56.1983 11.1 55.505 11.1ZM55.505 9.87C56.0517 9.87 56.4517 9.67333 56.705 9.28C56.9583 8.88 57.085 8.23 57.085 7.33C57.085 6.41 56.955 5.74333 56.695 5.33C56.4417 4.91 56.045 4.7 55.505 4.7C54.9583 4.7 54.555 4.91 54.295 5.33C54.035 5.75 53.905 6.41667 53.905 7.33C53.905 8.22333 54.0317 8.87 54.285 9.27C54.545 9.67 54.9517 9.87 55.505 9.87ZM67.1291 3.58C67.2158 3.58 67.2591 3.63 67.2591 3.73V10.84C67.2591 10.8867 67.2425 10.9267 67.2091 10.96C67.1758 10.9867 67.1291 11 67.0691 11H66.0591C66.0058 11 65.9625 10.9933 65.9291 10.98C65.8958 10.9667 65.8558 10.9333 65.8091 10.88L62.6191 6.4C62.5925 6.36667 62.5658 6.35333 62.5391 6.36C62.5191 6.36667 62.5091 6.38667 62.5091 6.42V10.82C62.5158 10.94 62.4491 11 62.3091 11H61.2691C61.1358 11 61.0691 10.9433 61.0691 10.83V3.77C61.0691 3.64333 61.1291 3.58 61.2491 3.58H62.4591C62.5325 3.58 62.5858 3.59 62.6191 3.61C62.6591 3.63 62.7025 3.67 62.7491 3.73L65.6891 7.92C65.7291 7.97333 65.7625 7.99667 65.7891 7.99C65.8225 7.98333 65.8391 7.95 65.8391 7.89V3.76C65.8391 3.64 65.8991 3.58 66.0191 3.58H67.1291ZM72.9076 11C72.8476 11 72.8009 10.9833 72.7676 10.95C72.7342 10.9167 72.7176 10.8733 72.7176 10.82V3.79C72.7176 3.73 72.7342 3.68 72.7676 3.64C72.8076 3.6 72.8576 3.58 72.9176 3.58H75.6276C76.6076 3.58 77.3542 3.74667 77.8676 4.08C78.3876 4.40667 78.6476 4.89 78.6476 5.53C78.6476 5.89667 78.5476 6.20667 78.3476 6.46C78.1542 6.71333 77.8176 6.94333 77.3376 7.15C77.3176 7.15667 77.3076 7.17 77.3076 7.19C77.3076 7.21 77.3176 7.22333 77.3376 7.23C77.8642 7.40333 78.2442 7.63 78.4776 7.91C78.7109 8.18333 78.8276 8.54333 78.8276 8.99C78.8276 9.67 78.5709 10.1767 78.0576 10.51C77.5442 10.8367 76.7776 11 75.7576 11H72.9076ZM75.7076 9.82C76.1409 9.82 76.4642 9.73 76.6776 9.55C76.8976 9.37 77.0076 9.13 77.0076 8.83C77.0076 8.61667 76.9542 8.44 76.8476 8.3C76.7409 8.15333 76.5942 8.04333 76.4076 7.97C76.2276 7.89667 76.0176 7.86 75.7776 7.86H74.6576C74.5309 7.86 74.4676 7.91667 74.4676 8.03V9.63C74.4676 9.75667 74.5142 9.82 74.6076 9.82H75.7076ZM75.7776 6.64C75.9309 6.64 76.0742 6.62333 76.2076 6.59C76.3476 6.55667 76.4676 6.5 76.5676 6.42C76.6742 6.34 76.7576 6.24333 76.8176 6.13C76.8842 6.01667 76.9176 5.88333 76.9176 5.73C76.9176 5.41667 76.8009 5.17667 76.5676 5.01C76.3409 4.84333 76.0476 4.76 75.6876 4.76H74.6576C74.5309 4.76 74.4676 4.81667 74.4676 4.93V6.46C74.4676 6.58 74.5142 6.64 74.6076 6.64H75.7776ZM86.9641 10.73C86.9908 10.8033 86.9875 10.8667 86.9541 10.92C86.9275 10.9733 86.8808 11 86.8141 11H85.3441C85.2308 11 85.1575 10.94 85.1241 10.82L84.0441 8.02C84.0041 7.92667 83.9108 7.88 83.7641 7.88H82.8141C82.7675 7.88 82.7341 7.89333 82.7141 7.92C82.7008 7.94667 82.6941 7.97 82.6941 7.99V10.76C82.6941 10.92 82.6041 11 82.4241 11H81.1541C81.0741 11 81.0175 10.9833 80.9841 10.95C80.9575 10.9167 80.9441 10.8667 80.9441 10.8V3.77C80.9441 3.64333 80.9975 3.58 81.1041 3.58H84.2241C85.1175 3.58 85.8108 3.75667 86.3041 4.11C86.8041 4.46333 87.0541 4.96667 87.0541 5.62C87.0541 5.96 86.9908 6.26333 86.8641 6.53C86.7375 6.79667 86.5708 7.02 86.3641 7.2C86.1575 7.37333 85.9308 7.50333 85.6841 7.59C85.6241 7.61 85.6108 7.66 85.6441 7.74L86.9641 10.73ZM84.0641 6.7C84.4441 6.7 84.7341 6.62 84.9341 6.46C85.1408 6.29333 85.2441 6.05333 85.2441 5.74C85.2441 5.41333 85.1408 5.16667 84.9341 5C84.7275 4.83333 84.4541 4.75 84.1141 4.75H82.8841C82.7575 4.75 82.6941 4.80667 82.6941 4.92V6.53C82.6941 6.64333 82.7408 6.7 82.8341 6.7H84.0641ZM89.1609 3.77C89.1609 3.64333 89.2143 3.58 89.3209 3.58H94.3609C94.4609 3.58 94.5109 3.63667 94.5109 3.75L94.5009 4.65C94.5009 4.79 94.4309 4.86 94.2909 4.86H91.1009C90.9743 4.86 90.9109 4.91333 90.9109 5.02V6.47C90.9109 6.58333 90.9609 6.64 91.0609 6.64H93.1809C93.2943 6.64 93.3509 6.69333 93.3509 6.8V7.76C93.3509 7.8 93.3376 7.83333 93.3109 7.86C93.2909 7.88667 93.2509 7.9 93.1909 7.9H91.0509C90.9576 7.9 90.9109 7.94 90.9109 8.02V9.59C90.9109 9.67667 90.9476 9.72 91.0209 9.72H94.4409C94.5609 9.72 94.6209 9.77 94.6209 9.87V10.82C94.6209 10.8733 94.6043 10.9167 94.5709 10.95C94.5443 10.9833 94.4943 11 94.4209 11H89.3809C89.2343 11 89.1609 10.93 89.1609 10.79V3.77ZM103.104 10.76C103.137 10.82 103.147 10.8767 103.134 10.93C103.121 10.9767 103.074 11 102.994 11H101.494C101.347 11 101.251 10.9467 101.204 10.84L99.5939 7.7C99.5472 7.62667 99.4839 7.64 99.4039 7.74L98.5139 8.8C98.4739 8.85333 98.4539 8.92333 98.4539 9.01V10.77C98.4539 10.9233 98.3639 11 98.1839 11H96.9239C96.8372 11 96.7772 10.9833 96.7439 10.95C96.7172 10.9167 96.7039 10.8667 96.7039 10.8V3.77C96.7039 3.64333 96.7572 3.58 96.8639 3.58H98.3039C98.4039 3.58 98.4539 3.63667 98.4539 3.75V6.74C98.4539 6.8 98.4639 6.83333 98.4839 6.84C98.5106 6.84 98.5406 6.82 98.5739 6.78L100.994 3.74C101.034 3.68667 101.077 3.64667 101.124 3.62C101.171 3.59333 101.237 3.58 101.324 3.58H102.524C102.611 3.58 102.671 3.60333 102.704 3.65C102.744 3.69667 102.737 3.75 102.684 3.81L100.764 6.06C100.711 6.12667 100.704 6.20667 100.744 6.3L103.104 10.76ZM111.545 10.76C111.579 10.82 111.589 10.8767 111.575 10.93C111.562 10.9767 111.515 11 111.435 11H109.935C109.789 11 109.692 10.9467 109.645 10.84L108.035 7.7C107.989 7.62667 107.925 7.64 107.845 7.74L106.955 8.8C106.915 8.85333 106.895 8.92333 106.895 9.01V10.77C106.895 10.9233 106.805 11 106.625 11H105.365C105.279 11 105.219 10.9833 105.185 10.95C105.159 10.9167 105.145 10.8667 105.145 10.8V3.77C105.145 3.64333 105.199 3.58 105.305 3.58H106.745C106.845 3.58 106.895 3.63667 106.895 3.75V6.74C106.895 6.8 106.905 6.83333 106.925 6.84C106.952 6.84 106.982 6.82 107.015 6.78L109.435 3.74C109.475 3.68667 109.519 3.64667 109.565 3.62C109.612 3.59333 109.679 3.58 109.765 3.58H110.965C111.052 3.58 111.112 3.60333 111.145 3.65C111.185 3.69667 111.179 3.75 111.125 3.81L109.205 6.06C109.152 6.12667 109.145 6.20667 109.185 6.3L111.545 10.76ZM113.587 3.77C113.587 3.64333 113.64 3.58 113.747 3.58H118.787C118.887 3.58 118.937 3.63667 118.937 3.75L118.927 4.65C118.927 4.79 118.857 4.86 118.717 4.86H115.527C115.4 4.86 115.337 4.91333 115.337 5.02V6.47C115.337 6.58333 115.387 6.64 115.487 6.64H117.607C117.72 6.64 117.777 6.69333 117.777 6.8V7.76C117.777 7.8 117.763 7.83333 117.737 7.86C117.717 7.88667 117.677 7.9 117.617 7.9H115.477C115.383 7.9 115.337 7.94 115.337 8.02V9.59C115.337 9.67667 115.373 9.72 115.447 9.72H118.867C118.987 9.72 119.047 9.77 119.047 9.87V10.82C119.047 10.8733 119.03 10.9167 118.997 10.95C118.97 10.9833 118.92 11 118.847 11H113.807C113.66 11 113.587 10.93 113.587 10.79V3.77Z" fill="black"/>
</svg>
