<svg width="285" height="13" viewBox="0 0 285 13" fill="none" xmlns="http://www.w3.org/2000/svg">
<path d="M25.89 10C25.83 10 25.7833 9.98333 25.75 9.95C25.7167 9.91667 25.7 9.87333 25.7 9.82V2.79C25.7 2.73 25.7167 2.68 25.75 2.64C25.79 2.6 25.84 2.58 25.9 2.58H28.61C29.59 2.58 30.3367 2.74667 30.85 3.08C31.37 3.40667 31.63 3.89 31.63 4.53C31.63 4.89667 31.53 5.20667 31.33 5.46C31.1367 5.71333 30.8 5.94333 30.32 6.15C30.3 6.15667 30.29 6.17 30.29 6.19C30.29 6.21 30.3 6.22333 30.32 6.23C30.8467 6.40333 31.2267 6.63 31.46 6.91C31.6933 7.18333 31.81 7.54333 31.81 7.99C31.81 8.67 31.5533 9.17667 31.04 9.51C30.5267 9.83667 29.76 10 28.74 10H25.89ZM28.69 8.82C29.1233 8.82 29.4467 8.73 29.66 8.55C29.88 8.37 29.99 8.13 29.99 7.83C29.99 7.61667 29.9367 7.44 29.83 7.3C29.7233 7.15333 29.5767 7.04333 29.39 6.97C29.21 6.89667 29 6.86 28.76 6.86H27.64C27.5133 6.86 27.45 6.91667 27.45 7.03V8.63C27.45 8.75667 27.4967 8.82 27.59 8.82H28.69ZM28.76 5.64C28.9133 5.64 29.0567 5.62333 29.19 5.59C29.33 5.55667 29.45 5.5 29.55 5.42C29.6567 5.34 29.74 5.24333 29.8 5.13C29.8667 5.01667 29.9 4.88333 29.9 4.73C29.9 4.41667 29.7833 4.17667 29.55 4.01C29.3233 3.84333 29.03 3.76 28.67 3.76H27.64C27.5133 3.76 27.45 3.81667 27.45 3.93V5.46C27.45 5.58 27.4967 5.64 27.59 5.64H28.76ZM39.7555 2.58C39.8221 2.58 39.8655 2.6 39.8855 2.64C39.9055 2.67333 39.8988 2.72 39.8655 2.78L37.5155 6.63C37.4755 6.69 37.4521 6.75333 37.4455 6.82C37.4388 6.88 37.4355 6.99333 37.4355 7.16V9.76C37.4355 9.92 37.3421 10 37.1555 10H35.9055C35.8188 10 35.7588 9.98333 35.7255 9.95C35.6988 9.91667 35.6855 9.86333 35.6855 9.79V7.1C35.6855 7.00667 35.6755 6.93667 35.6555 6.89C35.6355 6.84333 35.6055 6.79 35.5655 6.73L33.1955 2.81C33.1555 2.74333 33.1488 2.69 33.1755 2.65C33.2021 2.60333 33.2588 2.58 33.3455 2.58H34.8455C34.9321 2.58 34.9921 2.59333 35.0255 2.62C35.0588 2.64667 35.0955 2.69333 35.1355 2.76L36.6155 5.36C36.6555 5.42667 36.6888 5.46333 36.7155 5.47C36.7421 5.47 36.7721 5.44 36.8055 5.38L38.2655 2.76C38.3055 2.68667 38.3421 2.64 38.3755 2.62C38.4155 2.59333 38.4755 2.58 38.5555 2.58H39.7555Z" fill="black"/>
<path d="M46.7 2.77C46.7 2.64333 46.7533 2.58 46.86 2.58H48.29C48.3967 2.58 48.45 2.64 48.45 2.76V8.59C48.45 8.67667 48.4867 8.72 48.56 8.72H51.75C51.87 8.72 51.93 8.77 51.93 8.87V9.82C51.93 9.87333 51.9133 9.91667 51.88 9.95C51.8533 9.98333 51.8067 10 51.74 10H46.92C46.8333 10 46.7733 9.98333 46.74 9.95C46.7133 9.91667 46.7 9.86333 46.7 9.79V2.77ZM53.9695 2.77C53.9695 2.64333 54.0229 2.58 54.1295 2.58H59.1695C59.2695 2.58 59.3195 2.63667 59.3195 2.75L59.3095 3.65C59.3095 3.79 59.2395 3.86 59.0995 3.86H55.9095C55.7829 3.86 55.7195 3.91333 55.7195 4.02V5.47C55.7195 5.58333 55.7695 5.64 55.8695 5.64H57.9895C58.1029 5.64 58.1595 5.69333 58.1595 5.8V6.76C58.1595 6.8 58.1462 6.83333 58.1195 6.86C58.0995 6.88667 58.0595 6.9 57.9995 6.9H55.8595C55.7662 6.9 55.7195 6.94 55.7195 7.02V8.59C55.7195 8.67667 55.7562 8.72 55.8295 8.72H59.2495C59.3695 8.72 59.4295 8.77 59.4295 8.87V9.82C59.4295 9.87333 59.4129 9.91667 59.3795 9.95C59.3529 9.98333 59.3029 10 59.2295 10H54.1895C54.0429 10 53.9695 9.93 53.9695 9.79V2.77ZM64.3605 10.1C63.6538 10.1 63.0438 9.95 62.5305 9.65C62.0171 9.34333 61.6205 8.90667 61.3405 8.34C61.0671 7.77333 60.9305 7.1 60.9305 6.32C60.9305 5.52667 61.0705 4.84333 61.3505 4.27C61.6371 3.69667 62.0371 3.25667 62.5505 2.95C63.0638 2.63667 63.6671 2.48 64.3605 2.48C65.0538 2.48 65.6538 2.63667 66.1605 2.95C66.6738 3.25667 67.0705 3.69667 67.3505 4.27C67.6305 4.83667 67.7705 5.51667 67.7705 6.31C67.7705 7.09 67.6305 7.76333 67.3505 8.33C67.0771 8.89667 66.6838 9.33333 66.1705 9.64C65.6571 9.94667 65.0538 10.1 64.3605 10.1ZM64.3605 8.87C64.9071 8.87 65.3071 8.67333 65.5605 8.28C65.8138 7.88 65.9405 7.23 65.9405 6.33C65.9405 5.41 65.8105 4.74333 65.5505 4.33C65.2971 3.91 64.9005 3.7 64.3605 3.7C63.8138 3.7 63.4105 3.91 63.1505 4.33C62.8905 4.75 62.7605 5.41667 62.7605 6.33C62.7605 7.22333 62.8871 7.87 63.1405 8.27C63.4005 8.67 63.8071 8.87 64.3605 8.87ZM73.1752 10C73.1152 10 73.0685 9.98333 73.0352 9.95C73.0018 9.91667 72.9852 9.87333 72.9852 9.82V2.79C72.9852 2.73 73.0018 2.68 73.0352 2.64C73.0752 2.6 73.1252 2.58 73.1852 2.58H75.8952C76.8752 2.58 77.6218 2.74667 78.1352 3.08C78.6552 3.40667 78.9152 3.89 78.9152 4.53C78.9152 4.89667 78.8152 5.20667 78.6152 5.46C78.4218 5.71333 78.0852 5.94333 77.6052 6.15C77.5852 6.15667 77.5752 6.17 77.5752 6.19C77.5752 6.21 77.5852 6.22333 77.6052 6.23C78.1318 6.40333 78.5118 6.63 78.7452 6.91C78.9785 7.18333 79.0952 7.54333 79.0952 7.99C79.0952 8.67 78.8385 9.17667 78.3252 9.51C77.8118 9.83667 77.0452 10 76.0252 10H73.1752ZM75.9752 8.82C76.4085 8.82 76.7318 8.73 76.9452 8.55C77.1652 8.37 77.2752 8.13 77.2752 7.83C77.2752 7.61667 77.2218 7.44 77.1152 7.3C77.0085 7.15333 76.8618 7.04333 76.6752 6.97C76.4952 6.89667 76.2852 6.86 76.0452 6.86H74.9252C74.7985 6.86 74.7352 6.91667 74.7352 7.03V8.63C74.7352 8.75667 74.7818 8.82 74.8752 8.82H75.9752ZM76.0452 5.64C76.1985 5.64 76.3418 5.62333 76.4752 5.59C76.6152 5.55667 76.7352 5.5 76.8352 5.42C76.9418 5.34 77.0252 5.24333 77.0852 5.13C77.1518 5.01667 77.1852 4.88333 77.1852 4.73C77.1852 4.41667 77.0685 4.17667 76.8352 4.01C76.6085 3.84333 76.3152 3.76 75.9552 3.76H74.9252C74.7985 3.76 74.7352 3.81667 74.7352 3.93V5.46C74.7352 5.58 74.7818 5.64 74.8752 5.64H76.0452ZM80.7476 10C80.6876 10 80.6442 9.97333 80.6176 9.92C80.5909 9.86667 80.5909 9.79667 80.6176 9.71L83.1076 2.78C83.1342 2.70667 83.1642 2.65667 83.1976 2.63C83.2309 2.59667 83.2876 2.58 83.3676 2.58H84.8676C85.0142 2.58 85.1142 2.65333 85.1676 2.8L87.6376 9.73C87.6576 9.78333 87.6576 9.84333 87.6376 9.91C87.6176 9.97 87.5776 10 87.5176 10H86.0476C85.9476 10 85.8842 9.95333 85.8576 9.86L85.3376 8.4C85.3309 8.36667 85.3176 8.34 85.2976 8.32C85.2842 8.3 85.2542 8.29 85.2076 8.29H82.7676C82.7009 8.29 82.6576 8.32333 82.6376 8.39L82.1076 9.87C82.0942 9.91 82.0709 9.94333 82.0376 9.97C82.0109 9.99 81.9642 10 81.8976 10H80.7476ZM84.7976 6.96C84.8909 6.96 84.9209 6.90333 84.8876 6.79L84.0476 4.45C84.0276 4.41 84.0042 4.39 83.9776 4.39C83.9576 4.39 83.9376 4.41333 83.9176 4.46L83.0676 6.79C83.0209 6.90333 83.0509 6.96 83.1576 6.96H84.7976ZM95.7024 9.73C95.7291 9.80333 95.7258 9.86667 95.6924 9.92C95.6658 9.97333 95.6191 10 95.5524 10H94.0824C93.9691 10 93.8958 9.94 93.8624 9.82L92.7824 7.02C92.7424 6.92667 92.6491 6.88 92.5024 6.88H91.5524C91.5058 6.88 91.4724 6.89333 91.4524 6.92C91.4391 6.94667 91.4324 6.97 91.4324 6.99V9.76C91.4324 9.92 91.3424 10 91.1624 10H89.8924C89.8124 10 89.7558 9.98333 89.7224 9.95C89.6958 9.91667 89.6824 9.86667 89.6824 9.8V2.77C89.6824 2.64333 89.7358 2.58 89.8424 2.58H92.9624C93.8558 2.58 94.5491 2.75667 95.0424 3.11C95.5424 3.46333 95.7924 3.96667 95.7924 4.62C95.7924 4.96 95.7291 5.26333 95.6024 5.53C95.4758 5.79667 95.3091 6.02 95.1024 6.2C94.8958 6.37333 94.6691 6.50333 94.4224 6.59C94.3624 6.61 94.3491 6.66 94.3824 6.74L95.7024 9.73ZM92.8024 5.7C93.1824 5.7 93.4724 5.62 93.6724 5.46C93.8791 5.29333 93.9824 5.05333 93.9824 4.74C93.9824 4.41333 93.8791 4.16667 93.6724 4C93.4658 3.83333 93.1924 3.75 92.8524 3.75H91.6224C91.4958 3.75 91.4324 3.80667 91.4324 3.92V5.53C91.4324 5.64333 91.4791 5.7 91.5724 5.7H92.8024ZM97.4316 2.76C97.4316 2.70667 97.4482 2.66333 97.4816 2.63C97.5149 2.59667 97.5649 2.58 97.6316 2.58H103.372C103.445 2.58 103.495 2.59667 103.522 2.63C103.555 2.66333 103.572 2.70667 103.572 2.76V3.69C103.572 3.79 103.512 3.84 103.392 3.84H101.522C101.448 3.84 101.412 3.87333 101.412 3.94V9.81C101.412 9.93667 101.355 10 101.242 10H99.8116C99.7116 10 99.6616 9.94333 99.6616 9.83V3.97C99.6616 3.88333 99.6249 3.84 99.5516 3.84H97.6216C97.4949 3.84 97.4316 3.79 97.4316 3.69V2.76ZM105.608 2.77C105.608 2.64333 105.662 2.58 105.768 2.58H110.808C110.908 2.58 110.958 2.63667 110.958 2.75L110.948 3.65C110.948 3.79 110.878 3.86 110.738 3.86H107.548C107.422 3.86 107.358 3.91333 107.358 4.02V5.47C107.358 5.58333 107.408 5.64 107.508 5.64H109.628C109.742 5.64 109.798 5.69333 109.798 5.8V6.76C109.798 6.8 109.785 6.83333 109.758 6.86C109.738 6.88667 109.698 6.9 109.638 6.9H107.498C107.405 6.9 107.358 6.94 107.358 7.02V8.59C107.358 8.67667 107.395 8.72 107.468 8.72H110.888C111.008 8.72 111.068 8.77 111.068 8.87V9.82C111.068 9.87333 111.052 9.91667 111.018 9.95C110.992 9.98333 110.942 10 110.868 10H105.828C105.682 10 105.608 9.93 105.608 9.79V2.77ZM113.151 2.77C113.151 2.64333 113.205 2.58 113.311 2.58H114.741C114.848 2.58 114.901 2.64 114.901 2.76V8.59C114.901 8.67667 114.938 8.72 115.011 8.72H118.201C118.321 8.72 118.381 8.77 118.381 8.87V9.82C118.381 9.87333 118.365 9.91667 118.331 9.95C118.305 9.98333 118.258 10 118.191 10H113.371C113.285 10 113.225 9.98333 113.191 9.95C113.165 9.91667 113.151 9.86333 113.151 9.79V2.77ZM120.421 2.77C120.421 2.64333 120.474 2.58 120.581 2.58H122.011C122.117 2.58 122.171 2.64 122.171 2.76V8.59C122.171 8.67667 122.207 8.72 122.281 8.72H125.471C125.591 8.72 125.651 8.77 125.651 8.87V9.82C125.651 9.87333 125.634 9.91667 125.601 9.95C125.574 9.98333 125.527 10 125.461 10H120.641C120.554 10 120.494 9.98333 120.461 9.95C120.434 9.91667 120.421 9.86333 120.421 9.79V2.77Z" fill="black"/>
</svg>
